G04*
G04 #@! TF.GenerationSoftware,Altium Limited,Altium Designer,21.3.2 (30)*
G04*
G04 Layer_Color=16711935*
%FSLAX44Y44*%
%MOMM*%
G71*
G04*
G04 #@! TF.SameCoordinates,7FAD31E7-CA04-41FB-AB92-AE363CD61F23*
G04*
G04*
G04 #@! TF.FilePolarity,Positive*
G04*
G01*
G75*
%ADD68C,0.1000*%
%ADD69C,0.0500*%
D68*
X577500Y298000D02*
X587500D01*
X582500Y293000D02*
Y303000D01*
X641000Y273000D02*
X651000D01*
X646000Y268000D02*
Y278000D01*
X641000Y243000D02*
X651000D01*
X646000Y238000D02*
Y248000D01*
X535000Y298000D02*
X545000D01*
X540000Y293000D02*
Y303000D01*
X128000Y144000D02*
Y154000D01*
X123000Y149000D02*
X133000D01*
X305000Y266000D02*
Y276000D01*
X300000Y271000D02*
X310000D01*
X305000Y297000D02*
Y307000D01*
X300000Y302000D02*
X310000D01*
X402000Y297000D02*
X412000D01*
X407000Y292000D02*
Y302000D01*
X456000Y295000D02*
X466000D01*
X461000Y290000D02*
Y300000D01*
X84500Y144000D02*
Y154000D01*
X79500Y149000D02*
X89500D01*
X162000Y296000D02*
Y306000D01*
X157000Y301000D02*
X167000D01*
X162000Y266000D02*
Y276000D01*
X157000Y271000D02*
X167000D01*
X268000Y36000D02*
Y46000D01*
X263000Y41000D02*
X273000D01*
D69*
X671500Y376000D02*
X681500D01*
X676500Y371000D02*
Y381000D01*
X399700Y375000D02*
X409700D01*
X404700Y370000D02*
Y380000D01*
X399500Y407000D02*
X409500D01*
X404500Y402000D02*
Y412000D01*
X472100Y71000D02*
X482100D01*
X477100Y66000D02*
Y76000D01*
X472100Y103000D02*
X482100D01*
X477100Y98000D02*
Y108000D01*
X697500Y66000D02*
Y76000D01*
X692500Y71000D02*
X702500D01*
X697500Y98000D02*
Y108000D01*
X692500Y103000D02*
X702500D01*
X192500Y376000D02*
Y386000D01*
X187500Y381000D02*
X197500D01*
X676900Y403000D02*
Y413000D01*
X671900Y408000D02*
X681900D01*
X740000Y255000D02*
Y265000D01*
X735000Y260000D02*
X745000D01*
X47000Y351400D02*
Y361400D01*
X42000Y356400D02*
X52000D01*
X85000Y375400D02*
Y385400D01*
X80000Y380400D02*
X90000D01*
M02*
