G04*
G04 #@! TF.GenerationSoftware,Altium Limited,Altium Designer,21.3.2 (30)*
G04*
G04 Layer_Color=32768*
%FSLAX44Y44*%
%MOMM*%
G71*
G04*
G04 #@! TF.SameCoordinates,7FAD31E7-CA04-41FB-AB92-AE363CD61F23*
G04*
G04*
G04 #@! TF.FilePolarity,Positive*
G04*
G01*
G75*
%ADD68C,0.1000*%
D68*
X574900Y363300D02*
X778100D01*
X574900Y388700D02*
X778100D01*
Y363300D02*
Y388700D01*
X574900Y363300D02*
Y388700D01*
X277700Y362300D02*
Y387700D01*
X531700Y362300D02*
Y387700D01*
X277700D02*
X531700D01*
X277700Y362300D02*
X531700D01*
X277500Y394300D02*
Y419700D01*
X531500Y394300D02*
Y419700D01*
X277500D02*
X531500D01*
X277500Y394300D02*
X531500D01*
X375500Y58300D02*
X578700D01*
X375500Y83700D02*
X578700D01*
Y58300D02*
Y83700D01*
X375500Y58300D02*
Y83700D01*
Y90300D02*
X578700D01*
X375500Y115700D02*
X578700D01*
Y90300D02*
Y115700D01*
X375500Y90300D02*
Y115700D01*
X621300Y58300D02*
X773700D01*
X621300Y83700D02*
X773700D01*
Y58300D02*
Y83700D01*
X621300Y58300D02*
Y83700D01*
Y90300D02*
X773700D01*
X621300Y115700D02*
X773700D01*
Y90300D02*
Y115700D01*
X621300Y90300D02*
Y115700D01*
X157500Y344000D02*
X227500D01*
X157500Y418000D02*
X227500D01*
X157500Y344000D02*
Y418000D01*
X231500Y406450D02*
Y412950D01*
X227500Y412200D02*
X231500Y412950D01*
X227500Y407200D02*
X231500Y406450D01*
X227500Y412200D02*
Y418000D01*
Y354800D02*
X231500Y355550D01*
X227500Y349800D02*
X231500Y349050D01*
Y355550D01*
X227500Y344000D02*
Y349800D01*
Y354800D02*
Y407200D01*
X575300Y395300D02*
Y420700D01*
X778500Y395300D02*
Y420700D01*
X575300D02*
X778500D01*
X575300Y395300D02*
X778500D01*
X701900Y234600D02*
X778100D01*
X701900D02*
Y285400D01*
X778100D01*
Y234600D02*
Y285400D01*
X34300Y292900D02*
Y419900D01*
X59700Y292900D02*
Y419900D01*
X34300Y292900D02*
X59700D01*
X34300Y419900D02*
X59700D01*
X72300Y342300D02*
Y418500D01*
X97700Y342300D02*
Y418500D01*
X72300Y342300D02*
X97700D01*
X72300Y418500D02*
X97700D01*
M02*
