M48
;Layer_Color=9474304
;FILE_FORMAT=4:4
METRIC,LZ
;TYPE=PLATED
T1F00S00C0.7000
T2F00S00C0.7112
T3F00S00C0.7500
T5F00S00C0.9000
T6F00S00C0.9144
T7F00S00C0.9900
T8F00S00C0.9906
T9F00S00C1.1000
T10F00S00C1.1500
T11F00S00C1.2000
T12F00S00C1.3000
%
T01
X005226Y00255
X005275Y00298
X005525
X0057
X00595
X006335Y00273
X006585
X006585Y00243
X006335
X005714Y00255
X001405Y00149
X001155
X00097
X00072
T02
X00411Y00028
X00427Y00168
T03
X00218Y00041
X00318
X00355Y00271
Y00302
X00255
Y00271
X00212
Y00301
X00112
Y00271
T05
X004308Y001418
X004562
X004816
X00507
X005324
X005578
X005832
X006086
X00634
X006594
X006848
X007102
X007356
X00761
Y00218
X007356
X007102
X006848
X006594
X00634
X006086
X005832
X005578
X005324
X00507
X004816
X004562
X004308
T06
X00209Y00135
X002344
X00281
X003064
X003576Y00182
X00383
T07
X007735Y003025
Y003475
X007085
Y003025
T08
X000782Y00222
X001036
X00129
X002182
X002436
X00269
T09
X003882Y00071
X004136
X00439
X004644
X004898
X005152
X005406
X00566
Y00103
X005406
X005152
X004898
X004644
X00439
X004136
X003882
X00634
X006594
X006848
X007102
Y00071
X006848
X006594
X00634
X007356
X00761
Y00103
X007356
X0074Y002473
X007654
Y002727
X0074
X0074Y00376
X007654
X007658Y00408
X007404
X00715
X006896
X006642
X006388
X006134
X00588
X005876Y00376
X00613
X006384
X006638
X006892
X007146
X007146Y002727
Y002473
X00519Y00375
X004936
X004682
X004428
X004174
X00392
X003666
X003412
X00341Y00407
X003664
X003918
X004172
X004426
X00468
X004934
X005188
X003156
X002902
X002904Y00375
X003158
X00085Y003804
Y00355
X00047Y003564
Y00331
Y003056
Y003818
Y004072
X00085Y004058
T10
X00407Y002843
Y003097
X00461Y003077
Y002823
T11
X002167Y00074
X003213
T12
X00175Y00384
X0021
M30
