G04*
G04 #@! TF.GenerationSoftware,Altium Limited,Altium Designer,21.3.2 (30)*
G04*
G04 Layer_Physical_Order=1*
G04 Layer_Color=255*
%FSLAX44Y44*%
%MOMM*%
G71*
G04*
G04 #@! TF.SameCoordinates,7FAD31E7-CA04-41FB-AB92-AE363CD61F23*
G04*
G04*
G04 #@! TF.FilePolarity,Positive*
G04*
G01*
G75*
%ADD24R,1.2000X1.2000*%
%ADD25C,1.2000*%
%ADD39C,1.2500*%
%ADD40R,1.2500X1.2500*%
%ADD41C,1.7500*%
%ADD42R,1.7500X1.7500*%
%ADD45C,0.3000*%
%ADD46C,0.5000*%
%ADD47R,1.5000X1.5000*%
%ADD48C,1.5000*%
G04:AMPARAMS|DCode=49|XSize=3.5mm|YSize=1.3mm|CornerRadius=0.325mm|HoleSize=0mm|Usage=FLASHONLY|Rotation=180.000|XOffset=0mm|YOffset=0mm|HoleType=Round|Shape=RoundedRectangle|*
%AMROUNDEDRECTD49*
21,1,3.5000,0.6500,0,0,180.0*
21,1,2.8500,1.3000,0,0,180.0*
1,1,0.6500,-1.4250,0.3250*
1,1,0.6500,1.4250,0.3250*
1,1,0.6500,1.4250,-0.3250*
1,1,0.6500,-1.4250,-0.3250*
%
%ADD49ROUNDEDRECTD49*%
G04:AMPARAMS|DCode=50|XSize=3.5mm|YSize=1.3mm|CornerRadius=0.325mm|HoleSize=0mm|Usage=FLASHONLY|Rotation=90.000|XOffset=0mm|YOffset=0mm|HoleType=Round|Shape=RoundedRectangle|*
%AMROUNDEDRECTD50*
21,1,3.5000,0.6500,0,0,90.0*
21,1,2.8500,1.3000,0,0,90.0*
1,1,0.6500,0.3250,1.4250*
1,1,0.6500,0.3250,-1.4250*
1,1,0.6500,-0.3250,-1.4250*
1,1,0.6500,-0.3250,1.4250*
%
%ADD50ROUNDEDRECTD50*%
G04:AMPARAMS|DCode=51|XSize=4mm|YSize=1.3mm|CornerRadius=0.325mm|HoleSize=0mm|Usage=FLASHONLY|Rotation=90.000|XOffset=0mm|YOffset=0mm|HoleType=Round|Shape=RoundedRectangle|*
%AMROUNDEDRECTD51*
21,1,4.0000,0.6500,0,0,90.0*
21,1,3.3500,1.3000,0,0,90.0*
1,1,0.6500,0.3250,1.6750*
1,1,0.6500,0.3250,-1.6750*
1,1,0.6500,-0.3250,-1.6750*
1,1,0.6500,-0.3250,1.6750*
%
%ADD51ROUNDEDRECTD51*%
%ADD52C,1.6000*%
G04:AMPARAMS|DCode=53|XSize=1.6mm|YSize=1.6mm|CornerRadius=0.4mm|HoleSize=0mm|Usage=FLASHONLY|Rotation=180.000|XOffset=0mm|YOffset=0mm|HoleType=Round|Shape=RoundedRectangle|*
%AMROUNDEDRECTD53*
21,1,1.6000,0.8000,0,0,180.0*
21,1,0.8000,1.6000,0,0,180.0*
1,1,0.8000,-0.4000,0.4000*
1,1,0.8000,0.4000,0.4000*
1,1,0.8000,0.4000,-0.4000*
1,1,0.8000,-0.4000,-0.4000*
%
%ADD53ROUNDEDRECTD53*%
G04:AMPARAMS|DCode=54|XSize=1.95mm|YSize=1.95mm|CornerRadius=0.4875mm|HoleSize=0mm|Usage=FLASHONLY|Rotation=180.000|XOffset=0mm|YOffset=0mm|HoleType=Round|Shape=RoundedRectangle|*
%AMROUNDEDRECTD54*
21,1,1.9500,0.9750,0,0,180.0*
21,1,0.9750,1.9500,0,0,180.0*
1,1,0.9750,-0.4875,0.4875*
1,1,0.9750,0.4875,0.4875*
1,1,0.9750,0.4875,-0.4875*
1,1,0.9750,-0.4875,-0.4875*
%
%ADD54ROUNDEDRECTD54*%
%ADD55C,1.9500*%
G04:AMPARAMS|DCode=56|XSize=1.65mm|YSize=1.65mm|CornerRadius=0.4125mm|HoleSize=0mm|Usage=FLASHONLY|Rotation=180.000|XOffset=0mm|YOffset=0mm|HoleType=Round|Shape=RoundedRectangle|*
%AMROUNDEDRECTD56*
21,1,1.6500,0.8250,0,0,180.0*
21,1,0.8250,1.6500,0,0,180.0*
1,1,0.8250,-0.4125,0.4125*
1,1,0.8250,0.4125,0.4125*
1,1,0.8250,0.4125,-0.4125*
1,1,0.8250,-0.4125,-0.4125*
%
%ADD56ROUNDEDRECTD56*%
%ADD57C,1.6500*%
G04:AMPARAMS|DCode=58|XSize=1.6mm|YSize=1.6mm|CornerRadius=0.4mm|HoleSize=0mm|Usage=FLASHONLY|Rotation=90.000|XOffset=0mm|YOffset=0mm|HoleType=Round|Shape=RoundedRectangle|*
%AMROUNDEDRECTD58*
21,1,1.6000,0.8000,0,0,90.0*
21,1,0.8000,1.6000,0,0,90.0*
1,1,0.8000,0.4000,0.4000*
1,1,0.8000,0.4000,-0.4000*
1,1,0.8000,-0.4000,-0.4000*
1,1,0.8000,-0.4000,0.4000*
%
%ADD58ROUNDEDRECTD58*%
%ADD59R,2.0320X2.5400*%
%ADD60O,2.0320X2.5400*%
%ADD61C,2.0000*%
%ADD62R,2.0000X2.0000*%
%ADD63C,2.0320*%
%ADD64R,2.0320X2.0320*%
%ADD65R,1.5000X1.5000*%
%ADD66C,1.2700*%
G36*
X800000Y450000D02*
Y25000D01*
X775000Y0D01*
X25000D01*
X0Y25000D01*
Y450000D01*
X25000Y475000D01*
X775000D01*
X800000Y450000D01*
D02*
G37*
%LPC*%
G36*
X729800Y448119D02*
X57000D01*
X55424Y447806D01*
X54087Y446913D01*
X21087Y413913D01*
X20194Y412576D01*
X19881Y411000D01*
Y377000D01*
X20194Y375424D01*
X21087Y374087D01*
X36656Y358519D01*
X36460Y357788D01*
Y355012D01*
X37178Y352332D01*
X38566Y349928D01*
X40528Y347966D01*
X42932Y346578D01*
X45612Y345860D01*
X48388D01*
X51068Y346578D01*
X53472Y347966D01*
X55434Y349928D01*
X56822Y352332D01*
X57540Y355012D01*
Y357788D01*
X56822Y360468D01*
X55434Y362872D01*
X53472Y364834D01*
X51068Y366222D01*
X48388Y366940D01*
X45612D01*
X42932Y366222D01*
X41456Y365370D01*
X28119Y378706D01*
Y409294D01*
X29667Y410842D01*
X30841Y410356D01*
Y393840D01*
X31154Y392264D01*
X32047Y390927D01*
X37163Y385812D01*
X36460Y383188D01*
Y380412D01*
X37178Y377732D01*
X38566Y375328D01*
X40528Y373366D01*
X42932Y371978D01*
X45612Y371260D01*
X48388D01*
X51068Y371978D01*
X53472Y373366D01*
X55434Y375328D01*
X56822Y377732D01*
X57540Y380412D01*
Y383188D01*
X56822Y385868D01*
X55434Y388272D01*
X53472Y390234D01*
X51068Y391622D01*
X48388Y392340D01*
X45612D01*
X42989Y391637D01*
X39079Y395546D01*
Y398556D01*
X40252Y399042D01*
X40528Y398766D01*
X42932Y397378D01*
X45612Y396660D01*
X45730D01*
Y407200D01*
X48270D01*
Y396660D01*
X48388D01*
X51068Y397378D01*
X53472Y398766D01*
X55434Y400728D01*
X56204Y402061D01*
X67959D01*
X69925Y402452D01*
X71592Y403566D01*
X73287Y405261D01*
X74460Y404775D01*
Y404412D01*
X74858Y402926D01*
X62366Y390434D01*
X61252Y388767D01*
X60861Y386800D01*
Y352128D01*
X49874Y341142D01*
X48388Y341540D01*
X45612D01*
X42932Y340822D01*
X40528Y339434D01*
X38566Y337472D01*
X37178Y335068D01*
X36460Y332388D01*
Y329612D01*
X37178Y326932D01*
X38566Y324528D01*
X40528Y322566D01*
X42932Y321178D01*
X45612Y320460D01*
X48388D01*
X51068Y321178D01*
X53472Y322566D01*
X55434Y324528D01*
X56822Y326932D01*
X57540Y329612D01*
Y332388D01*
X57142Y333874D01*
X69634Y346366D01*
X70748Y348033D01*
X71139Y350000D01*
Y384672D01*
X82126Y395658D01*
X83612Y395260D01*
X86388D01*
X89068Y395978D01*
X91472Y397366D01*
X93434Y399328D01*
X94822Y401732D01*
X95540Y404412D01*
Y407188D01*
X94822Y409868D01*
X93434Y412272D01*
X91472Y414234D01*
X89068Y415622D01*
X86388Y416340D01*
X86025D01*
X85539Y417513D01*
X90467Y422441D01*
X296715D01*
X297201Y421268D01*
X293074Y417142D01*
X291588Y417540D01*
X288812D01*
X286132Y416822D01*
X283728Y415434D01*
X281766Y413472D01*
X280996Y412139D01*
X209228D01*
X207262Y411748D01*
X205595Y410634D01*
X187439Y392478D01*
X186540Y391133D01*
X185162Y390979D01*
X184834Y391546D01*
X182546Y393834D01*
X179744Y395452D01*
X176618Y396290D01*
X173382D01*
X170256Y395452D01*
X167454Y393834D01*
X165166Y391546D01*
X163548Y388744D01*
X162710Y385618D01*
Y382382D01*
X163548Y379256D01*
X165166Y376454D01*
X166097Y375522D01*
X165611Y374349D01*
X142275D01*
X132590Y384034D01*
X130923Y385148D01*
X128956Y385539D01*
X94204D01*
X93434Y386872D01*
X91472Y388834D01*
X89068Y390222D01*
X86388Y390940D01*
X83612D01*
X80932Y390222D01*
X78528Y388834D01*
X76566Y386872D01*
X75178Y384468D01*
X74460Y381788D01*
Y379012D01*
X75178Y376332D01*
X76566Y373928D01*
X78528Y371966D01*
X80932Y370578D01*
X83612Y369860D01*
X86388D01*
X89068Y370578D01*
X91472Y371966D01*
X93434Y373928D01*
X94204Y375261D01*
X126828D01*
X136513Y365576D01*
X138180Y364462D01*
X140147Y364071D01*
X181126D01*
X183093Y364462D01*
X184760Y365576D01*
X194706Y375522D01*
X195820Y377189D01*
X196211Y379156D01*
Y385711D01*
X196376Y385821D01*
X197408Y385270D01*
X208730D01*
Y396354D01*
X207509D01*
X207023Y397527D01*
X211357Y401861D01*
X280996D01*
X281766Y400528D01*
X283728Y398566D01*
X285161Y397739D01*
Y384146D01*
X283928Y383434D01*
X281966Y381472D01*
X280578Y379068D01*
X279860Y376388D01*
Y373612D01*
X280578Y370932D01*
X281966Y368528D01*
X282222Y368272D01*
X281736Y367099D01*
X269584D01*
X249049Y387634D01*
X247382Y388748D01*
X245415Y389139D01*
X222319D01*
X222099Y390811D01*
X221352Y392615D01*
X220163Y394163D01*
X218615Y395352D01*
X216811Y396099D01*
X214875Y396354D01*
X211270D01*
Y384000D01*
X210000D01*
Y382730D01*
X197646D01*
Y379125D01*
X197901Y377189D01*
X198648Y375386D01*
X199837Y373837D01*
X201385Y372648D01*
X203189Y371901D01*
X204861Y371681D01*
Y341570D01*
X197076Y333785D01*
X195962Y332118D01*
X195571Y330152D01*
Y292662D01*
X195962Y290696D01*
X197076Y289029D01*
X203484Y282621D01*
Y279790D01*
X203210D01*
Y272270D01*
X212000D01*
Y269730D01*
X203210D01*
Y264829D01*
X123996D01*
X120408Y268417D01*
X120790Y269843D01*
Y272157D01*
X120191Y274393D01*
X119034Y276397D01*
X117397Y278034D01*
X115393Y279191D01*
X113157Y279790D01*
X112561D01*
X112035Y281060D01*
X114592Y283616D01*
X115706Y285284D01*
X116097Y287250D01*
Y293215D01*
X117397Y293966D01*
X119034Y295603D01*
X120191Y297607D01*
X120790Y299843D01*
Y302157D01*
X120191Y304393D01*
X119034Y306397D01*
X117397Y308034D01*
X115393Y309191D01*
X113157Y309790D01*
X110843D01*
X108607Y309191D01*
X106603Y308034D01*
X106143Y307574D01*
X57596D01*
Y309600D01*
X57372Y311307D01*
X56713Y312898D01*
X55664Y314264D01*
X54298Y315313D01*
X52707Y315972D01*
X51000Y316196D01*
X43000D01*
X41293Y315972D01*
X39702Y315313D01*
X38336Y314264D01*
X37287Y312898D01*
X36628Y311307D01*
X36404Y309600D01*
Y301600D01*
X36628Y299893D01*
X37287Y298302D01*
X38336Y296936D01*
X39702Y295887D01*
X41293Y295228D01*
X43000Y295004D01*
X51000D01*
X52707Y295228D01*
X54298Y295887D01*
X55664Y296936D01*
X55941Y297296D01*
X103989D01*
X104966Y295603D01*
X105819Y294750D01*
Y289379D01*
X97076Y280636D01*
X95962Y278969D01*
X95571Y277002D01*
Y266324D01*
X95962Y264357D01*
X97076Y262690D01*
X118749Y241017D01*
X120416Y239904D01*
X122382Y239512D01*
X221360D01*
X223341Y237531D01*
X222622Y236455D01*
X221515Y236913D01*
X218200Y237350D01*
X214885Y236913D01*
X211795Y235633D01*
X209142Y233598D01*
X207107Y230945D01*
X205827Y227855D01*
X205733Y227139D01*
X141700D01*
Y237240D01*
X116300D01*
Y230385D01*
X115030Y230132D01*
X114693Y230945D01*
X112658Y233598D01*
X110005Y235633D01*
X106915Y236913D01*
X104870Y237182D01*
Y222000D01*
X102330D01*
Y237182D01*
X100285Y236913D01*
X99019Y236389D01*
X92034Y243374D01*
X90366Y244487D01*
X88400Y244879D01*
X71904D01*
X69938Y244487D01*
X68270Y243374D01*
X57326Y232430D01*
X56212Y230763D01*
X55821Y228796D01*
Y140912D01*
X56212Y138946D01*
X57326Y137279D01*
X77283Y117323D01*
X78950Y116209D01*
X79667Y116066D01*
X96861Y98871D01*
Y95778D01*
X96491Y95704D01*
X94576Y94424D01*
X93296Y92509D01*
X92847Y90250D01*
Y77270D01*
X102000D01*
X111153D01*
Y90250D01*
X110704Y92509D01*
X109424Y94424D01*
X107509Y95704D01*
X107139Y95778D01*
Y101000D01*
X106748Y102966D01*
X105634Y104634D01*
X85677Y124590D01*
X84010Y125704D01*
X83293Y125846D01*
X69853Y139287D01*
X70339Y140460D01*
X73273D01*
X73493Y140240D01*
X73672Y139337D01*
X74786Y137670D01*
X85670Y126786D01*
X87337Y125672D01*
X89304Y125281D01*
X116048D01*
X118014Y125672D01*
X119681Y126786D01*
X130174Y137279D01*
X131288Y138946D01*
X131679Y140912D01*
Y144659D01*
X132949Y144999D01*
X133666Y143756D01*
X135256Y142166D01*
X137204Y141042D01*
X139230Y140499D01*
Y149000D01*
Y157501D01*
X137204Y156958D01*
X135256Y155834D01*
X133666Y154244D01*
X132949Y153001D01*
X131679Y153341D01*
Y206760D01*
X141700D01*
Y216861D01*
X205733D01*
X205827Y216145D01*
X207107Y213055D01*
X209142Y210402D01*
X211795Y208367D01*
X214885Y207087D01*
X218200Y206650D01*
X221515Y207087D01*
X224605Y208367D01*
X227258Y210402D01*
X229293Y213055D01*
X230213Y215275D01*
X231587D01*
X232507Y213055D01*
X233187Y212169D01*
X230766Y209748D01*
X229652Y208081D01*
X229261Y206114D01*
Y147700D01*
X221700D01*
Y140943D01*
X220430Y140603D01*
X219163Y142798D01*
X216798Y145162D01*
X213902Y146834D01*
X210672Y147700D01*
X210270D01*
Y135000D01*
Y122300D01*
X210672D01*
X213902Y123166D01*
X216798Y124838D01*
X219163Y127202D01*
X220430Y129397D01*
X221700Y129057D01*
Y122300D01*
X247100D01*
Y147700D01*
X239539D01*
Y203986D01*
X242366Y206813D01*
X243600Y206650D01*
X246915Y207087D01*
X250005Y208367D01*
X252658Y210402D01*
X254693Y213055D01*
X255030Y213868D01*
X256300Y213615D01*
Y206760D01*
X279061D01*
Y175137D01*
X262166Y158242D01*
X261052Y156575D01*
X260661Y154609D01*
Y90928D01*
X219445Y49713D01*
X219157Y49790D01*
X216843D01*
X214607Y49191D01*
X212603Y48034D01*
X210966Y46397D01*
X209809Y44393D01*
X209210Y42157D01*
Y39843D01*
X209809Y37607D01*
X210966Y35603D01*
X212603Y33966D01*
X214607Y32809D01*
X216843Y32210D01*
X219157D01*
X221393Y32809D01*
X223397Y33966D01*
X225034Y35603D01*
X225183Y35861D01*
X296244D01*
X306029Y26076D01*
X307696Y24962D01*
X309662Y24571D01*
X324209D01*
X324414Y24366D01*
X326081Y23252D01*
X328048Y22861D01*
X403702D01*
X403886Y22541D01*
X405541Y20886D01*
X407569Y19716D01*
X409830Y19110D01*
X412170D01*
X414431Y19716D01*
X416459Y20886D01*
X418114Y22541D01*
X419284Y24569D01*
X419890Y26830D01*
Y29170D01*
X419284Y31431D01*
X418114Y33459D01*
X416459Y35114D01*
X414431Y36284D01*
X412170Y36890D01*
X409830D01*
X407569Y36284D01*
X405541Y35114D01*
X403886Y33459D01*
X403702Y33139D01*
X330176D01*
X329971Y33344D01*
X328304Y34458D01*
X326790Y34759D01*
Y43965D01*
X328699Y45873D01*
X379811D01*
X384717Y40967D01*
X386053Y40074D01*
X387630Y39761D01*
X575123D01*
X576699Y40074D01*
X578035Y40967D01*
X589249Y52181D01*
X590757Y51881D01*
X777000D01*
X778576Y52194D01*
X779913Y53087D01*
X782913Y56087D01*
X783806Y57424D01*
X784119Y59000D01*
Y199000D01*
X783806Y200576D01*
X782913Y201913D01*
X771040Y213785D01*
Y222215D01*
X774429Y225604D01*
X775379Y226239D01*
X787953Y238812D01*
X788846Y240148D01*
X789159Y241725D01*
Y335960D01*
X788846Y337536D01*
X787953Y338873D01*
X782929Y343897D01*
X783540Y346178D01*
Y348822D01*
X782856Y351375D01*
X781534Y353665D01*
X779665Y355534D01*
X777375Y356856D01*
X774822Y357540D01*
X772178D01*
X770789Y357168D01*
X769519Y358142D01*
Y365419D01*
X771107Y365628D01*
X772698Y366287D01*
X774064Y367336D01*
X775113Y368702D01*
X775772Y370293D01*
X775996Y372000D01*
Y380000D01*
X775772Y381707D01*
X775113Y383298D01*
X774064Y384664D01*
X772698Y385713D01*
X771107Y386372D01*
X769719Y386554D01*
Y397404D01*
X769800D01*
X771507Y397628D01*
X773098Y398287D01*
X774464Y399336D01*
X775513Y400702D01*
X776172Y402293D01*
X776396Y404000D01*
Y412000D01*
X776172Y413707D01*
X775513Y415298D01*
X774464Y416664D01*
X773098Y417713D01*
X771507Y418372D01*
X769800Y418596D01*
X761800D01*
X761119Y418507D01*
X732713Y446913D01*
X731376Y447806D01*
X729800Y448119D01*
D02*
G37*
G36*
X89000Y365596D02*
X81000D01*
X79293Y365372D01*
X77702Y364713D01*
X76336Y363664D01*
X75287Y362298D01*
X74628Y360707D01*
X74404Y359000D01*
Y351000D01*
X74628Y349293D01*
X75287Y347702D01*
X76336Y346336D01*
X77702Y345287D01*
X79293Y344628D01*
X81000Y344404D01*
X89000D01*
X90707Y344628D01*
X92298Y345287D01*
X93664Y346336D01*
X94713Y347702D01*
X95372Y349293D01*
X95596Y351000D01*
Y359000D01*
X95372Y360707D01*
X94713Y362298D01*
X93664Y363664D01*
X92298Y364713D01*
X90707Y365372D01*
X89000Y365596D01*
D02*
G37*
G36*
X141770Y157501D02*
Y149000D01*
Y140499D01*
X143796Y141042D01*
X145744Y142166D01*
X147334Y143756D01*
X147394Y143861D01*
X192871D01*
X197095Y139638D01*
X196300Y136672D01*
Y136270D01*
X207730D01*
Y147700D01*
X207328D01*
X204362Y146905D01*
X198634Y152634D01*
X196966Y153748D01*
X195000Y154139D01*
X147394D01*
X147334Y154244D01*
X145744Y155834D01*
X143796Y156958D01*
X141770Y157501D01*
D02*
G37*
G36*
X207730Y133730D02*
X196300D01*
Y133328D01*
X197095Y130362D01*
X185998Y119265D01*
X170402D01*
X168436Y118874D01*
X166769Y117760D01*
X128366Y79357D01*
X127252Y77690D01*
X126861Y75724D01*
Y38153D01*
X119114D01*
X107139Y50128D01*
Y56222D01*
X107509Y56296D01*
X109424Y57576D01*
X110704Y59491D01*
X111153Y61750D01*
Y74730D01*
X102000D01*
X92847D01*
Y61750D01*
X93296Y59491D01*
X94576Y57576D01*
X96491Y56296D01*
X96861Y56222D01*
Y48000D01*
X97252Y46034D01*
X98366Y44366D01*
X111847Y30886D01*
Y30270D01*
X132000D01*
X152153D01*
Y32250D01*
X151704Y34509D01*
X150424Y36424D01*
X148509Y37704D01*
X146250Y38153D01*
X137139D01*
Y73595D01*
X153673Y90130D01*
X154847Y89644D01*
Y59250D01*
X155296Y56991D01*
X156576Y55076D01*
X158491Y53796D01*
X160750Y53347D01*
X167250D01*
X169509Y53796D01*
X171424Y55076D01*
X172704Y56991D01*
X173153Y59250D01*
Y69881D01*
X204821D01*
X205015Y69160D01*
X206665Y66300D01*
X209000Y63966D01*
X211860Y62315D01*
X215049Y61460D01*
X218351D01*
X221540Y62315D01*
X224400Y63966D01*
X226735Y66300D01*
X228385Y69160D01*
X229240Y72349D01*
Y75651D01*
X228385Y78840D01*
X226735Y81700D01*
X224400Y84035D01*
X221540Y85685D01*
X218351Y86540D01*
X215049D01*
X211860Y85685D01*
X209000Y84035D01*
X206665Y81700D01*
X205015Y78840D01*
X204821Y78119D01*
X173153D01*
Y92750D01*
X172704Y95009D01*
X171424Y96924D01*
X169509Y98204D01*
X167250Y98653D01*
X163856D01*
X163370Y99827D01*
X172531Y108988D01*
X188126D01*
X190093Y109379D01*
X191760Y110493D01*
X204362Y123095D01*
X207328Y122300D01*
X207730D01*
Y133730D01*
D02*
G37*
G36*
X152153Y27730D02*
X133270D01*
Y19847D01*
X146250D01*
X148509Y20296D01*
X150424Y21576D01*
X151704Y23491D01*
X152153Y25750D01*
Y27730D01*
D02*
G37*
G36*
X130730D02*
X111847D01*
Y25750D01*
X112296Y23491D01*
X113576Y21576D01*
X115491Y20296D01*
X117750Y19847D01*
X130730D01*
Y27730D01*
D02*
G37*
%LPD*%
G36*
X730563Y412012D02*
X729860Y409388D01*
Y406612D01*
X730578Y403932D01*
X731966Y401528D01*
X733928Y399566D01*
X736081Y398323D01*
Y385862D01*
X735932Y385822D01*
X733528Y384434D01*
X731566Y382472D01*
X730178Y380068D01*
X729460Y377388D01*
Y374612D01*
X730178Y371932D01*
X731566Y369528D01*
X733528Y367566D01*
X735881Y366208D01*
Y315197D01*
X725429Y304745D01*
X724159Y305271D01*
Y335960D01*
X723846Y337536D01*
X722953Y338873D01*
X717929Y343897D01*
X718540Y346178D01*
Y348822D01*
X717856Y351375D01*
X716534Y353665D01*
X714665Y355534D01*
X712375Y356856D01*
X709822Y357540D01*
X707178D01*
X704625Y356856D01*
X702335Y355534D01*
X700466Y353665D01*
X699153Y353930D01*
X699056Y354631D01*
X710588Y366163D01*
X713212Y365460D01*
X715988D01*
X718668Y366178D01*
X721072Y367566D01*
X723034Y369528D01*
X724422Y371932D01*
X725140Y374612D01*
Y377388D01*
X724422Y380068D01*
X723034Y382472D01*
X721072Y384434D01*
X718919Y385677D01*
Y398138D01*
X719068Y398178D01*
X721472Y399566D01*
X723434Y401528D01*
X724822Y403932D01*
X725540Y406612D01*
Y409388D01*
X724822Y412068D01*
X723434Y414472D01*
X721472Y416434D01*
X719068Y417822D01*
X716388Y418540D01*
X713612D01*
X710932Y417822D01*
X708528Y416434D01*
X706566Y414472D01*
X705178Y412068D01*
X704460Y409388D01*
Y406612D01*
X705178Y403932D01*
X706566Y401528D01*
X708528Y399566D01*
X710681Y398323D01*
Y385862D01*
X710532Y385822D01*
X708128Y384434D01*
X706166Y382472D01*
X704778Y380068D01*
X704060Y377388D01*
Y374612D01*
X704763Y371988D01*
X694492Y361718D01*
X693319Y362204D01*
Y366208D01*
X695672Y367566D01*
X697634Y369528D01*
X699022Y371932D01*
X699740Y374612D01*
Y377388D01*
X699022Y380068D01*
X697634Y382472D01*
X695672Y384434D01*
X693519Y385677D01*
Y398138D01*
X693668Y398178D01*
X696072Y399566D01*
X698034Y401528D01*
X699422Y403932D01*
X700140Y406612D01*
Y409388D01*
X699422Y412068D01*
X698034Y414472D01*
X696072Y416434D01*
X693668Y417822D01*
X690988Y418540D01*
X688212D01*
X685532Y417822D01*
X683128Y416434D01*
X681166Y414472D01*
X679778Y412068D01*
X679060Y409388D01*
Y406612D01*
X679778Y403932D01*
X681166Y401528D01*
X683128Y399566D01*
X685281Y398323D01*
Y385862D01*
X685132Y385822D01*
X682728Y384434D01*
X680766Y382472D01*
X679378Y380068D01*
X678660Y377388D01*
Y374612D01*
X679378Y371932D01*
X680766Y369528D01*
X682728Y367566D01*
X685081Y366208D01*
Y362341D01*
X683811Y361814D01*
X673637Y371988D01*
X674340Y374612D01*
Y377388D01*
X673622Y380068D01*
X672234Y382472D01*
X670272Y384434D01*
X668119Y385677D01*
Y398138D01*
X668268Y398178D01*
X670672Y399566D01*
X672634Y401528D01*
X674022Y403932D01*
X674740Y406612D01*
Y409388D01*
X674022Y412068D01*
X672634Y414472D01*
X670672Y416434D01*
X668268Y417822D01*
X665588Y418540D01*
X662812D01*
X660132Y417822D01*
X657728Y416434D01*
X655766Y414472D01*
X654378Y412068D01*
X653660Y409388D01*
Y406612D01*
X654378Y403932D01*
X655766Y401528D01*
X657728Y399566D01*
X659881Y398323D01*
Y385862D01*
X659732Y385822D01*
X657328Y384434D01*
X655366Y382472D01*
X653978Y380068D01*
X653260Y377388D01*
Y374612D01*
X653978Y371932D01*
X655366Y369528D01*
X657328Y367566D01*
X659732Y366178D01*
X662412Y365460D01*
X665188D01*
X667812Y366163D01*
X677881Y356094D01*
Y254007D01*
X668870Y244997D01*
X667459Y245382D01*
X667305Y245980D01*
X671453Y250127D01*
X672346Y251464D01*
X672659Y253040D01*
Y277159D01*
X672346Y278735D01*
X671453Y280071D01*
X627491Y324033D01*
X626155Y324926D01*
X624579Y325239D01*
X536676D01*
X536190Y326413D01*
X540858Y331081D01*
X597600D01*
X599177Y331395D01*
X600513Y332288D01*
X634388Y366163D01*
X637012Y365460D01*
X639788D01*
X642468Y366178D01*
X644872Y367566D01*
X646834Y369528D01*
X648222Y371932D01*
X648940Y374612D01*
Y377388D01*
X648222Y380068D01*
X646834Y382472D01*
X644872Y384434D01*
X642719Y385677D01*
Y398138D01*
X642868Y398178D01*
X645272Y399566D01*
X647234Y401528D01*
X648622Y403932D01*
X649340Y406612D01*
Y409388D01*
X648622Y412068D01*
X647234Y414472D01*
X645272Y416434D01*
X642868Y417822D01*
X640188Y418540D01*
X637412D01*
X634732Y417822D01*
X632328Y416434D01*
X630366Y414472D01*
X628978Y412068D01*
X628260Y409388D01*
Y406612D01*
X628978Y403932D01*
X630366Y401528D01*
X632328Y399566D01*
X634481Y398323D01*
Y385862D01*
X634332Y385822D01*
X631928Y384434D01*
X629966Y382472D01*
X628578Y380068D01*
X627860Y377388D01*
Y374612D01*
X628563Y371988D01*
X595894Y339319D01*
X583804D01*
X583318Y340493D01*
X608988Y366163D01*
X611612Y365460D01*
X614388D01*
X617068Y366178D01*
X619472Y367566D01*
X621434Y369528D01*
X622822Y371932D01*
X623540Y374612D01*
Y377388D01*
X622822Y380068D01*
X621434Y382472D01*
X619472Y384434D01*
X617319Y385677D01*
Y398138D01*
X617468Y398178D01*
X619872Y399566D01*
X621834Y401528D01*
X623222Y403932D01*
X623940Y406612D01*
Y409388D01*
X623222Y412068D01*
X621834Y414472D01*
X619872Y416434D01*
X617468Y417822D01*
X614788Y418540D01*
X612012D01*
X609332Y417822D01*
X606928Y416434D01*
X604966Y414472D01*
X603578Y412068D01*
X602860Y409388D01*
Y406612D01*
X603578Y403932D01*
X604966Y401528D01*
X606928Y399566D01*
X609081Y398323D01*
Y385862D01*
X608932Y385822D01*
X606528Y384434D01*
X604566Y382472D01*
X603178Y380068D01*
X602460Y377388D01*
Y374612D01*
X603163Y371988D01*
X576034Y344860D01*
X536857D01*
X535281Y344546D01*
X533945Y343653D01*
X478687Y288396D01*
X477794Y287059D01*
X477481Y285483D01*
Y274746D01*
X476307Y274260D01*
X472290Y278277D01*
Y281030D01*
X462270D01*
Y271010D01*
X465023D01*
X469182Y266850D01*
Y245651D01*
X465426Y241895D01*
X464312Y240228D01*
X463921Y238262D01*
Y226137D01*
X462748Y225651D01*
X462365Y226034D01*
X460075Y227356D01*
X457522Y228040D01*
X454878D01*
X452325Y227356D01*
X450035Y226034D01*
X448166Y224165D01*
X446844Y221875D01*
X446160Y219322D01*
Y216678D01*
X446844Y214125D01*
X448166Y211835D01*
X450035Y209966D01*
X452325Y208644D01*
X454878Y207960D01*
X457522D01*
X460075Y208644D01*
X462365Y209966D01*
X463136Y210738D01*
X464602Y210407D01*
X465426Y209172D01*
X472772Y201826D01*
X474439Y200712D01*
X476406Y200321D01*
X537594D01*
X539561Y200712D01*
X541228Y201826D01*
X548894Y209492D01*
X549462Y210343D01*
X550262Y210570D01*
X551077Y210524D01*
X551635Y209966D01*
X553925Y208644D01*
X556478Y207960D01*
X559122D01*
X561675Y208644D01*
X563965Y209966D01*
X565834Y211835D01*
X567156Y214125D01*
X567840Y216678D01*
Y219322D01*
X567229Y221603D01*
X574313Y228687D01*
X575206Y230024D01*
X575519Y231600D01*
Y246460D01*
X579940D01*
Y257715D01*
X589707Y267482D01*
X590881Y266996D01*
Y231600D01*
X591194Y230024D01*
X592087Y228687D01*
X599171Y221603D01*
X598560Y219322D01*
Y216678D01*
X599244Y214125D01*
X600566Y211835D01*
X602435Y209966D01*
X604481Y208785D01*
Y168906D01*
X586803Y151229D01*
X584522Y151840D01*
X581878D01*
X579325Y151156D01*
X577035Y149834D01*
X575166Y147965D01*
X573985Y145919D01*
X567015D01*
X565834Y147965D01*
X563965Y149834D01*
X561675Y151156D01*
X559122Y151840D01*
X556478D01*
X553925Y151156D01*
X551635Y149834D01*
X549766Y147965D01*
X548444Y145675D01*
X547760Y143122D01*
Y140478D01*
X548444Y137925D01*
X549766Y135635D01*
X549849Y135553D01*
X549363Y134379D01*
X545646D01*
X541829Y138197D01*
X542440Y140478D01*
Y143122D01*
X541756Y145675D01*
X540434Y147965D01*
X538565Y149834D01*
X536275Y151156D01*
X533722Y151840D01*
X531078D01*
X528525Y151156D01*
X526235Y149834D01*
X524366Y147965D01*
X523044Y145675D01*
X522360Y143122D01*
Y140478D01*
X523044Y137925D01*
X524366Y135635D01*
X526235Y133766D01*
X528525Y132444D01*
X531078Y131760D01*
X533722D01*
X536003Y132371D01*
X538362Y130013D01*
X537876Y128839D01*
X525786D01*
X516429Y138197D01*
X517040Y140478D01*
Y143122D01*
X516356Y145675D01*
X515034Y147965D01*
X513165Y149834D01*
X510875Y151156D01*
X508322Y151840D01*
X505678D01*
X503125Y151156D01*
X500835Y149834D01*
X498966Y147965D01*
X497644Y145675D01*
X496960Y143122D01*
Y140478D01*
X497644Y137925D01*
X498966Y135635D01*
X500835Y133766D01*
X503125Y132444D01*
X505678Y131760D01*
X508322D01*
X510603Y132371D01*
X521167Y121807D01*
X522504Y120914D01*
X524080Y120601D01*
X607840D01*
X609416Y120914D01*
X610753Y121807D01*
X624529Y135584D01*
X625966Y135635D01*
X627835Y133766D01*
X629881Y132585D01*
Y112792D01*
X627528Y111434D01*
X625566Y109472D01*
X624178Y107068D01*
X623460Y104388D01*
Y101612D01*
X624178Y98932D01*
X625566Y96528D01*
X627528Y94566D01*
X629881Y93208D01*
Y80792D01*
X627528Y79434D01*
X625566Y77472D01*
X624178Y75068D01*
X623460Y72388D01*
Y69612D01*
X624178Y66932D01*
X625566Y64528D01*
X627528Y62566D01*
X629566Y61389D01*
X629226Y60119D01*
X593119D01*
Y109000D01*
X592806Y110576D01*
X591913Y111913D01*
X586906Y116919D01*
X586906Y116919D01*
X585873Y117953D01*
X584536Y118846D01*
X582960Y119159D01*
X451040D01*
X449464Y118846D01*
X448127Y117953D01*
X443012Y112837D01*
X440388Y113540D01*
X437612D01*
X434932Y112822D01*
X432528Y111434D01*
X430566Y109472D01*
X429178Y107068D01*
X428460Y104388D01*
Y101612D01*
X429178Y98932D01*
X430566Y96528D01*
X432528Y94566D01*
X434881Y93208D01*
Y80792D01*
X432528Y79434D01*
X430566Y77472D01*
X429178Y75068D01*
X428460Y72388D01*
Y69612D01*
X429178Y66932D01*
X430566Y64528D01*
X430822Y64272D01*
X430336Y63099D01*
X428769D01*
X423742Y68126D01*
X424140Y69612D01*
Y72388D01*
X423422Y75068D01*
X422034Y77472D01*
X420072Y79434D01*
X418739Y80204D01*
Y93796D01*
X420072Y94566D01*
X422034Y96528D01*
X423422Y98932D01*
X424140Y101612D01*
Y104388D01*
X423422Y107068D01*
X422034Y109472D01*
X420072Y111434D01*
X417668Y112822D01*
X414988Y113540D01*
X412212D01*
X409532Y112822D01*
X407128Y111434D01*
X405166Y109472D01*
X403778Y107068D01*
X403060Y104388D01*
Y101612D01*
X403778Y98932D01*
X405166Y96528D01*
X407128Y94566D01*
X408461Y93796D01*
Y80204D01*
X407128Y79434D01*
X405166Y77472D01*
X403778Y75068D01*
X403060Y72388D01*
Y69612D01*
X403778Y66932D01*
X405166Y64528D01*
X407128Y62566D01*
X409532Y61178D01*
X412212Y60460D01*
X414988D01*
X416474Y60858D01*
X420601Y56732D01*
X420115Y55559D01*
X392467D01*
X388739Y59287D01*
X389225Y60460D01*
X389588D01*
X392268Y61178D01*
X394672Y62566D01*
X396634Y64528D01*
X398022Y66932D01*
X398740Y69612D01*
Y72388D01*
X398022Y75068D01*
X396634Y77472D01*
X394672Y79434D01*
X392268Y80822D01*
X389588Y81540D01*
X386812D01*
X384132Y80822D01*
X381728Y79434D01*
X379766Y77472D01*
X378378Y75068D01*
X377660Y72388D01*
Y71636D01*
X376540Y71037D01*
X376225Y71248D01*
X374259Y71639D01*
X333840D01*
Y86540D01*
X316027D01*
X286139Y116428D01*
Y122300D01*
X293700D01*
Y129057D01*
X294970Y129397D01*
X296238Y127202D01*
X298602Y124838D01*
X301498Y123166D01*
X304728Y122300D01*
X305130D01*
Y135000D01*
Y147700D01*
X304728D01*
X301498Y146834D01*
X298602Y145162D01*
X296238Y142798D01*
X294970Y140603D01*
X293700Y140943D01*
Y147700D01*
X270939D01*
Y152480D01*
X287834Y169375D01*
X288948Y171042D01*
X289339Y173009D01*
Y236788D01*
X288948Y238754D01*
X287834Y240421D01*
X273066Y255189D01*
X271399Y256303D01*
X269432Y256694D01*
X260606D01*
X256292Y261009D01*
X256733Y262364D01*
X258393Y262809D01*
X260397Y263966D01*
X262034Y265603D01*
X262772Y266881D01*
X335080D01*
X344164Y257797D01*
X345500Y256904D01*
X347077Y256591D01*
X362923D01*
X364500Y256904D01*
X365836Y257797D01*
X390084Y282046D01*
X390977Y283382D01*
X391291Y284958D01*
Y288165D01*
X394537Y291411D01*
X395710Y290925D01*
Y285570D01*
X405730D01*
Y295590D01*
X400375D01*
X399889Y296763D01*
X402428Y299303D01*
X402642Y299179D01*
X405514Y298410D01*
X408486D01*
X411358Y299179D01*
X413932Y300666D01*
X416034Y302768D01*
X417521Y305342D01*
X418290Y308214D01*
Y311186D01*
X417521Y314058D01*
X416034Y316632D01*
X415469Y317197D01*
X415955Y318371D01*
X444504D01*
X450603Y312272D01*
X450479Y312058D01*
X449710Y309186D01*
Y306214D01*
X450479Y303342D01*
X451966Y300768D01*
X454068Y298666D01*
X456642Y297179D01*
X459514Y296410D01*
X462486D01*
X465358Y297179D01*
X467932Y298666D01*
X470034Y300768D01*
X471521Y303342D01*
X472290Y306214D01*
Y309186D01*
X471521Y312058D01*
X470034Y314632D01*
X467932Y316734D01*
X465358Y318221D01*
X462486Y318990D01*
X459514D01*
X456642Y318221D01*
X456428Y318097D01*
X449123Y325403D01*
X447786Y326296D01*
X446210Y326609D01*
X396269D01*
X394693Y326296D01*
X393356Y325403D01*
X374073Y306119D01*
X363790D01*
Y310790D01*
X353061D01*
X352575Y311963D01*
X394913Y354301D01*
X395806Y355637D01*
X396119Y357213D01*
Y365208D01*
X398472Y366566D01*
X400434Y368528D01*
X401822Y370932D01*
X402540Y373612D01*
Y376388D01*
X401822Y379068D01*
X400434Y381472D01*
X398472Y383434D01*
X396068Y384822D01*
X396019Y384835D01*
Y397265D01*
X398272Y398566D01*
X400234Y400528D01*
X401622Y402932D01*
X402340Y405612D01*
Y408388D01*
X401622Y411068D01*
X400234Y413472D01*
X398272Y415434D01*
X395868Y416822D01*
X393188Y417540D01*
X390412D01*
X387732Y416822D01*
X385328Y415434D01*
X383366Y413472D01*
X381978Y411068D01*
X381260Y408388D01*
Y405612D01*
X381978Y402932D01*
X383366Y400528D01*
X385328Y398566D01*
X387732Y397178D01*
X387781Y397165D01*
Y384735D01*
X385528Y383434D01*
X383566Y381472D01*
X382178Y379068D01*
X381460Y376388D01*
Y373612D01*
X382178Y370932D01*
X383566Y368528D01*
X385528Y366566D01*
X387881Y365208D01*
Y358920D01*
X341797Y312836D01*
X340904Y311500D01*
X340591Y309923D01*
Y294077D01*
X340904Y292500D01*
X341797Y291164D01*
X347597Y285365D01*
X348933Y284472D01*
X350509Y284158D01*
X356487D01*
X359410Y281235D01*
X357965Y279790D01*
X346210D01*
Y269061D01*
X345037Y268575D01*
X339699Y273913D01*
X338363Y274806D01*
X336787Y275119D01*
X262772D01*
X262034Y276397D01*
X260397Y278034D01*
X258393Y279191D01*
X256157Y279790D01*
X253843D01*
X251607Y279191D01*
X250119Y278332D01*
X248849Y278978D01*
Y288582D01*
X253554Y293287D01*
X253843Y293210D01*
X256157D01*
X258393Y293809D01*
X260397Y294966D01*
X262034Y296603D01*
X263191Y298607D01*
X263790Y300843D01*
Y303157D01*
X263191Y305393D01*
X262034Y307397D01*
X260397Y309034D01*
X258393Y310191D01*
X256157Y310790D01*
X253843D01*
X251607Y310191D01*
X249603Y309034D01*
X247966Y307397D01*
X246809Y305393D01*
X246210Y303157D01*
Y300843D01*
X246287Y300555D01*
X240076Y294344D01*
X238962Y292677D01*
X238571Y290710D01*
Y266324D01*
X238962Y264357D01*
X240076Y262690D01*
X254844Y247922D01*
X256511Y246808D01*
X258478Y246417D01*
X267304D01*
X275307Y238413D01*
X274821Y237240D01*
X262125D01*
X245262Y254104D01*
X243925Y254997D01*
X242349Y255310D01*
X216525D01*
X216518Y255321D01*
X217196Y256591D01*
X219923D01*
X221500Y256904D01*
X222836Y257797D01*
X225203Y260164D01*
X226096Y261500D01*
X226409Y263077D01*
Y278923D01*
X226096Y280500D01*
X225203Y281836D01*
X220869Y286170D01*
Y296250D01*
X220790Y296648D01*
Y309790D01*
X205849D01*
Y328023D01*
X213634Y335808D01*
X214748Y337475D01*
X215139Y339442D01*
Y371681D01*
X216811Y371901D01*
X218615Y372648D01*
X220163Y373837D01*
X221352Y375386D01*
X222099Y377189D01*
X222319Y378861D01*
X243287D01*
X263822Y358326D01*
X265489Y357212D01*
X267455Y356821D01*
X302760D01*
X304727Y357212D01*
X306394Y358326D01*
X312926Y364859D01*
X314412Y364460D01*
X314530D01*
Y373730D01*
X305260D01*
Y373612D01*
X305658Y372126D01*
X300631Y367099D01*
X299064D01*
X298578Y368272D01*
X298834Y368528D01*
X300222Y370932D01*
X300940Y373612D01*
Y376388D01*
X300222Y379068D01*
X298834Y381472D01*
X296872Y383434D01*
X295439Y384262D01*
Y397854D01*
X296672Y398566D01*
X298634Y400528D01*
X300022Y402932D01*
X300740Y405612D01*
Y408388D01*
X300342Y409874D01*
X305368Y414901D01*
X306936D01*
X307422Y413728D01*
X307166Y413472D01*
X305778Y411068D01*
X305060Y408388D01*
Y408270D01*
X315600D01*
X326140D01*
Y408388D01*
X325422Y411068D01*
X324034Y413472D01*
X323778Y413728D01*
X324264Y414901D01*
X325831D01*
X330858Y409874D01*
X330460Y408388D01*
Y405612D01*
X331178Y402932D01*
X332566Y400528D01*
X334528Y398566D01*
X335961Y397739D01*
Y384146D01*
X334728Y383434D01*
X332766Y381472D01*
X331378Y379068D01*
X330660Y376388D01*
Y373612D01*
X331378Y370932D01*
X332766Y368528D01*
X333022Y368272D01*
X332536Y367099D01*
X330969D01*
X325942Y372126D01*
X326340Y373612D01*
Y373730D01*
X317070D01*
Y364460D01*
X317188D01*
X318674Y364859D01*
X325206Y358326D01*
X326874Y357212D01*
X328840Y356821D01*
X353560D01*
X355527Y357212D01*
X357194Y358326D01*
X363726Y364859D01*
X365212Y364460D01*
X365330D01*
Y373730D01*
X356060D01*
Y373612D01*
X356458Y372126D01*
X351431Y367099D01*
X349864D01*
X349378Y368272D01*
X349634Y368528D01*
X351022Y370932D01*
X351740Y373612D01*
Y376388D01*
X351022Y379068D01*
X349634Y381472D01*
X347672Y383434D01*
X346239Y384262D01*
Y397854D01*
X347472Y398566D01*
X349434Y400528D01*
X350822Y402932D01*
X351540Y405612D01*
Y408388D01*
X350822Y411068D01*
X349434Y413472D01*
X347472Y415434D01*
X345068Y416822D01*
X342388Y417540D01*
X339612D01*
X338126Y417142D01*
X333999Y421268D01*
X334485Y422441D01*
X343691D01*
X356258Y409874D01*
X355860Y408388D01*
Y408270D01*
X365130D01*
Y417540D01*
X365012D01*
X363526Y417142D01*
X350056Y430611D01*
X350583Y431881D01*
X710694D01*
X730563Y412012D01*
D02*
G37*
G36*
X700466Y341335D02*
X702335Y339466D01*
X704625Y338144D01*
X707178Y337460D01*
X709822D01*
X712103Y338071D01*
X715921Y334254D01*
Y310937D01*
X714748Y310451D01*
X714665Y310534D01*
X712375Y311856D01*
X709822Y312540D01*
X709770D01*
Y302500D01*
Y292460D01*
X709822D01*
X710601Y292669D01*
X711391Y291566D01*
X710794Y290673D01*
X710481Y289097D01*
Y282767D01*
X710435Y282755D01*
X707975Y281334D01*
X705966Y279325D01*
X704545Y276865D01*
X703810Y274121D01*
Y271280D01*
X704545Y268535D01*
X705966Y266075D01*
X707281Y264760D01*
X707413Y263366D01*
X707218Y263124D01*
X700129Y256035D01*
X698859Y256561D01*
Y296579D01*
X700129Y296919D01*
X700466Y296335D01*
X702335Y294466D01*
X704625Y293144D01*
X707178Y292460D01*
X707230D01*
Y302500D01*
Y312540D01*
X707178D01*
X704625Y311856D01*
X702335Y310534D01*
X700466Y308665D01*
X700129Y308081D01*
X698859Y308421D01*
Y341579D01*
X700129Y341919D01*
X700466Y341335D01*
D02*
G37*
G36*
X582113Y315828D02*
X574786Y308501D01*
X573672Y306834D01*
X573614Y306540D01*
X571270D01*
Y298000D01*
Y289460D01*
X571273D01*
X574010Y286723D01*
X575677Y285609D01*
X576925Y285361D01*
X577781Y284504D01*
Y278139D01*
X570272D01*
X568306Y277747D01*
X566639Y276634D01*
X541626Y251621D01*
X540512Y249954D01*
X540121Y247988D01*
Y226137D01*
X538948Y225651D01*
X538565Y226034D01*
X536519Y227215D01*
Y245200D01*
X536206Y246776D01*
X535313Y248113D01*
X530804Y252621D01*
X531140Y253876D01*
Y256124D01*
X530558Y258296D01*
X529434Y260244D01*
X527844Y261834D01*
X525896Y262958D01*
X523724Y263540D01*
X522321D01*
X521579Y264282D01*
Y289460D01*
X522861D01*
Y285929D01*
X523252Y283962D01*
X524366Y282295D01*
X527295Y279366D01*
X528962Y278252D01*
X530929Y277861D01*
X555000D01*
X556967Y278252D01*
X558634Y279366D01*
X568727Y289460D01*
X568730D01*
Y298000D01*
Y306540D01*
X561460D01*
Y302101D01*
X560190Y301761D01*
X559334Y303244D01*
X557744Y304834D01*
X555796Y305958D01*
X553624Y306540D01*
X551376D01*
X549204Y305958D01*
X547256Y304834D01*
X545666Y303244D01*
X544542Y301296D01*
X543960Y299124D01*
Y296876D01*
X544542Y294704D01*
X545666Y292756D01*
X547256Y291166D01*
X549204Y290042D01*
X550993Y289562D01*
X551530Y288603D01*
X551604Y288190D01*
X551569Y288139D01*
X533139D01*
Y289460D01*
X536040D01*
Y296730D01*
X527500D01*
Y298000D01*
X526230D01*
Y306540D01*
X525811D01*
X525325Y307713D01*
X534613Y317001D01*
X581627D01*
X582113Y315828D01*
D02*
G37*
G36*
X763460Y346295D02*
Y346178D01*
X764144Y343625D01*
X765466Y341335D01*
X767335Y339466D01*
X769625Y338144D01*
X772178Y337460D01*
X774822D01*
X777103Y338071D01*
X780921Y334254D01*
Y312540D01*
X774770D01*
Y302500D01*
Y292460D01*
X780921D01*
Y264800D01*
X779651Y264275D01*
X776143Y267782D01*
X776247Y268575D01*
Y276825D01*
X776019Y278565D01*
X775347Y280186D01*
X774278Y281579D01*
X772886Y282647D01*
X771265Y283318D01*
X769525Y283547D01*
X761275D01*
X759535Y283318D01*
X758389Y282844D01*
X757119Y283512D01*
Y341614D01*
X762287Y346781D01*
X763460Y346295D01*
D02*
G37*
G36*
X657116Y282758D02*
X656714Y281363D01*
X655204Y280958D01*
X653256Y279834D01*
X651666Y278244D01*
X650542Y276296D01*
X649960Y274124D01*
Y271876D01*
X650296Y270621D01*
X645547Y265873D01*
X644654Y264536D01*
X644341Y262960D01*
Y241953D01*
X643213Y240825D01*
X642040Y241311D01*
Y241730D01*
X624960D01*
Y237079D01*
X621263D01*
X606136Y252206D01*
Y273111D01*
X607953Y274928D01*
X608376Y275561D01*
X609947Y275786D01*
X616366Y269366D01*
X618033Y268252D01*
X620000Y267861D01*
X624960D01*
Y264460D01*
X628361D01*
Y251540D01*
X624960D01*
Y244270D01*
X642040D01*
Y251540D01*
X638639D01*
Y264460D01*
X642040D01*
Y271730D01*
X633500D01*
Y273000D01*
X632230D01*
Y281540D01*
X624960D01*
Y278139D01*
X622128D01*
X616719Y283549D01*
Y304868D01*
X616328Y306834D01*
X615214Y308501D01*
X607887Y315828D01*
X608373Y317001D01*
X622872D01*
X657116Y282758D01*
D02*
G37*
G36*
X715870Y236510D02*
X716021D01*
X718765Y237245D01*
X721225Y238666D01*
X721598Y239038D01*
X722771Y238552D01*
Y227316D01*
X719671Y224216D01*
X718234Y224165D01*
X716365Y226034D01*
X714075Y227356D01*
X711522Y228040D01*
X708878D01*
X707536Y227680D01*
X706429Y228787D01*
Y238552D01*
X707602Y239038D01*
X707975Y238666D01*
X710435Y237245D01*
X713179Y236510D01*
X713330D01*
Y247300D01*
X715870D01*
Y236510D01*
D02*
G37*
G36*
X556019Y109651D02*
X555628Y108707D01*
X555404Y107000D01*
Y99000D01*
X555628Y97293D01*
X556287Y95702D01*
X557336Y94336D01*
X558702Y93287D01*
X560293Y92628D01*
X560861Y92554D01*
Y81447D01*
X560293Y81372D01*
X558702Y80713D01*
X557336Y79664D01*
X556287Y78298D01*
X555628Y76707D01*
X555404Y75000D01*
Y67671D01*
X543292Y55559D01*
X483285D01*
X482799Y56732D01*
X486926Y60858D01*
X488412Y60460D01*
X491188D01*
X493868Y61178D01*
X496272Y62566D01*
X498234Y64528D01*
X499622Y66932D01*
X500340Y69612D01*
Y72388D01*
X499622Y75068D01*
X498234Y77472D01*
X496272Y79434D01*
X494939Y80204D01*
Y93796D01*
X496272Y94566D01*
X498234Y96528D01*
X499622Y98932D01*
X500340Y101612D01*
Y104388D01*
X499622Y107068D01*
X498234Y109472D01*
X497958Y109747D01*
X498444Y110921D01*
X506556D01*
X507042Y109747D01*
X506766Y109472D01*
X505378Y107068D01*
X504660Y104388D01*
Y104270D01*
X515200D01*
Y101730D01*
X504660D01*
Y101612D01*
X505378Y98932D01*
X506766Y96528D01*
X508728Y94566D01*
X510061Y93796D01*
Y80204D01*
X508728Y79434D01*
X506766Y77472D01*
X505378Y75068D01*
X504660Y72388D01*
Y72270D01*
X515200D01*
Y71000D01*
X516470D01*
Y60460D01*
X516588D01*
X519268Y61178D01*
X521672Y62566D01*
X523634Y64528D01*
X524404Y65861D01*
X531396D01*
X532166Y64528D01*
X534128Y62566D01*
X536532Y61178D01*
X539212Y60460D01*
X539330D01*
Y71000D01*
Y81540D01*
X539212D01*
X536532Y80822D01*
X534128Y79434D01*
X532166Y77472D01*
X531396Y76139D01*
X524404D01*
X523634Y77472D01*
X521672Y79434D01*
X520339Y80204D01*
Y93796D01*
X521672Y94566D01*
X523634Y96528D01*
X524404Y97861D01*
X531396D01*
X532166Y96528D01*
X534128Y94566D01*
X536532Y93178D01*
X539212Y92460D01*
X539330D01*
Y103000D01*
X540600D01*
Y104270D01*
X551140D01*
Y104388D01*
X550422Y107068D01*
X549034Y109472D01*
X548758Y109747D01*
X549244Y110921D01*
X555251D01*
X556019Y109651D01*
D02*
G37*
%LPC*%
G36*
X367788Y417540D02*
X367670D01*
Y408270D01*
X376940D01*
Y408388D01*
X376222Y411068D01*
X374834Y413472D01*
X372872Y415434D01*
X370468Y416822D01*
X367788Y417540D01*
D02*
G37*
G36*
X326140Y405730D02*
X315600D01*
X305060D01*
Y405612D01*
X305778Y402932D01*
X307166Y400528D01*
X309128Y398566D01*
X310561Y397739D01*
Y384146D01*
X309328Y383434D01*
X307366Y381472D01*
X305978Y379068D01*
X305260Y376388D01*
Y376270D01*
X315800D01*
X326340D01*
Y376388D01*
X325622Y379068D01*
X324234Y381472D01*
X322272Y383434D01*
X320839Y384262D01*
Y397854D01*
X322072Y398566D01*
X324034Y400528D01*
X325422Y402932D01*
X326140Y405612D01*
Y405730D01*
D02*
G37*
G36*
X376940D02*
X366400D01*
X355860D01*
Y405612D01*
X356578Y402932D01*
X357966Y400528D01*
X359928Y398566D01*
X361361Y397739D01*
Y384146D01*
X360128Y383434D01*
X358166Y381472D01*
X356778Y379068D01*
X356060Y376388D01*
Y376270D01*
X366600D01*
Y375000D01*
D01*
Y376270D01*
X377140D01*
Y376388D01*
X376422Y379068D01*
X375034Y381472D01*
X373072Y383434D01*
X371639Y384262D01*
Y397854D01*
X372872Y398566D01*
X374834Y400528D01*
X376222Y402932D01*
X376940Y405612D01*
Y405730D01*
D02*
G37*
G36*
X589388Y418540D02*
X586612D01*
X583932Y417822D01*
X581528Y416434D01*
X579566Y414472D01*
X578178Y412068D01*
X577460Y409388D01*
Y406612D01*
X578178Y403932D01*
X579566Y401528D01*
X581528Y399566D01*
X583681Y398323D01*
Y385862D01*
X583532Y385822D01*
X581128Y384434D01*
X579166Y382472D01*
X577778Y380068D01*
X577060Y377388D01*
Y374612D01*
X577778Y371932D01*
X579166Y369528D01*
X581128Y367566D01*
X583532Y366178D01*
X586212Y365460D01*
X588988D01*
X591668Y366178D01*
X594072Y367566D01*
X596034Y369528D01*
X597422Y371932D01*
X598140Y374612D01*
Y377388D01*
X597422Y380068D01*
X596034Y382472D01*
X594072Y384434D01*
X591919Y385677D01*
Y398138D01*
X592068Y398178D01*
X594472Y399566D01*
X596434Y401528D01*
X597822Y403932D01*
X598540Y406612D01*
Y409388D01*
X597822Y412068D01*
X596434Y414472D01*
X594472Y416434D01*
X592068Y417822D01*
X589388Y418540D01*
D02*
G37*
G36*
X494788Y417540D02*
X492012D01*
X489332Y416822D01*
X486928Y415434D01*
X484966Y413472D01*
X483578Y411068D01*
X482860Y408388D01*
Y405612D01*
X483578Y402932D01*
X484966Y400528D01*
X486928Y398566D01*
X489332Y397178D01*
X489381Y397165D01*
Y384735D01*
X487128Y383434D01*
X485166Y381472D01*
X483778Y379068D01*
X483060Y376388D01*
Y373612D01*
X483778Y370932D01*
X485166Y368528D01*
X487128Y366566D01*
X489532Y365178D01*
X492212Y364460D01*
X494988D01*
X497668Y365178D01*
X500072Y366566D01*
X502034Y368528D01*
X503422Y370932D01*
X504140Y373612D01*
Y376388D01*
X503422Y379068D01*
X502034Y381472D01*
X500072Y383434D01*
X497668Y384822D01*
X497619Y384835D01*
Y397265D01*
X499872Y398566D01*
X501834Y400528D01*
X503222Y402932D01*
X503940Y405612D01*
Y408388D01*
X503222Y411068D01*
X501834Y413472D01*
X499872Y415434D01*
X497468Y416822D01*
X494788Y417540D01*
D02*
G37*
G36*
X469388D02*
X466612D01*
X463932Y416822D01*
X461528Y415434D01*
X459566Y413472D01*
X458178Y411068D01*
X457460Y408388D01*
Y405612D01*
X458178Y402932D01*
X459566Y400528D01*
X461528Y398566D01*
X463932Y397178D01*
X463981Y397165D01*
Y384735D01*
X461728Y383434D01*
X459766Y381472D01*
X458378Y379068D01*
X457660Y376388D01*
Y373612D01*
X458378Y370932D01*
X459766Y368528D01*
X461728Y366566D01*
X464132Y365178D01*
X466812Y364460D01*
X469588D01*
X472268Y365178D01*
X474672Y366566D01*
X476634Y368528D01*
X478022Y370932D01*
X478740Y373612D01*
Y376388D01*
X478022Y379068D01*
X476634Y381472D01*
X474672Y383434D01*
X472268Y384822D01*
X472219Y384835D01*
Y397265D01*
X474472Y398566D01*
X476434Y400528D01*
X477822Y402932D01*
X478540Y405612D01*
Y408388D01*
X477822Y411068D01*
X476434Y413472D01*
X474472Y415434D01*
X472068Y416822D01*
X469388Y417540D01*
D02*
G37*
G36*
X443988D02*
X441212D01*
X438532Y416822D01*
X436128Y415434D01*
X434166Y413472D01*
X432778Y411068D01*
X432060Y408388D01*
Y405612D01*
X432778Y402932D01*
X434166Y400528D01*
X436128Y398566D01*
X438532Y397178D01*
X438581Y397165D01*
Y384735D01*
X436328Y383434D01*
X434366Y381472D01*
X432978Y379068D01*
X432260Y376388D01*
Y373612D01*
X432978Y370932D01*
X434366Y368528D01*
X436328Y366566D01*
X438732Y365178D01*
X441412Y364460D01*
X444188D01*
X446868Y365178D01*
X449272Y366566D01*
X451234Y368528D01*
X452622Y370932D01*
X453340Y373612D01*
Y376388D01*
X452622Y379068D01*
X451234Y381472D01*
X449272Y383434D01*
X446868Y384822D01*
X446819Y384835D01*
Y397265D01*
X449072Y398566D01*
X451034Y400528D01*
X452422Y402932D01*
X453140Y405612D01*
Y408388D01*
X452422Y411068D01*
X451034Y413472D01*
X449072Y415434D01*
X446668Y416822D01*
X443988Y417540D01*
D02*
G37*
G36*
X418588D02*
X415812D01*
X413132Y416822D01*
X410728Y415434D01*
X408766Y413472D01*
X407378Y411068D01*
X406660Y408388D01*
Y405612D01*
X407378Y402932D01*
X408766Y400528D01*
X410728Y398566D01*
X413132Y397178D01*
X413181Y397165D01*
Y384735D01*
X410928Y383434D01*
X408966Y381472D01*
X407578Y379068D01*
X406860Y376388D01*
Y373612D01*
X407578Y370932D01*
X408966Y368528D01*
X410928Y366566D01*
X413332Y365178D01*
X416012Y364460D01*
X418788D01*
X421468Y365178D01*
X423872Y366566D01*
X425834Y368528D01*
X427222Y370932D01*
X427940Y373612D01*
Y376388D01*
X427222Y379068D01*
X425834Y381472D01*
X423872Y383434D01*
X421468Y384822D01*
X421419Y384835D01*
Y397265D01*
X423672Y398566D01*
X425634Y400528D01*
X427022Y402932D01*
X427740Y405612D01*
Y408388D01*
X427022Y411068D01*
X425634Y413472D01*
X423672Y415434D01*
X421268Y416822D01*
X418588Y417540D01*
D02*
G37*
G36*
X377140Y373730D02*
X367870D01*
Y364460D01*
X367988D01*
X370668Y365178D01*
X373072Y366566D01*
X375034Y368528D01*
X376422Y370932D01*
X377140Y373612D01*
Y373730D01*
D02*
G37*
G36*
X522800Y417597D02*
X514800D01*
X513093Y417372D01*
X511502Y416713D01*
X510136Y415664D01*
X509087Y414298D01*
X508428Y412707D01*
X508204Y411000D01*
Y403000D01*
X508428Y401293D01*
X509087Y399702D01*
X510136Y398336D01*
X511502Y397287D01*
X513093Y396628D01*
X514781Y396406D01*
Y385568D01*
X513293Y385372D01*
X511702Y384713D01*
X510336Y383664D01*
X509287Y382298D01*
X508628Y380707D01*
X508404Y379000D01*
Y371000D01*
X508628Y369293D01*
X509287Y367702D01*
X510336Y366336D01*
X511702Y365287D01*
X513293Y364628D01*
X515000Y364404D01*
X523000D01*
X524707Y364628D01*
X526298Y365287D01*
X527664Y366336D01*
X528713Y367702D01*
X529372Y369293D01*
X529596Y371000D01*
Y379000D01*
X529372Y380707D01*
X528713Y382298D01*
X527664Y383664D01*
X526298Y384713D01*
X524707Y385372D01*
X523019Y385594D01*
Y396432D01*
X524507Y396628D01*
X526098Y397287D01*
X527464Y398336D01*
X528513Y399702D01*
X529172Y401293D01*
X529396Y403000D01*
Y411000D01*
X529172Y412707D01*
X528513Y414298D01*
X527464Y415664D01*
X526098Y416713D01*
X524507Y417372D01*
X522800Y417597D01*
D02*
G37*
G36*
X472290Y293590D02*
X462270D01*
Y283570D01*
X472290D01*
Y293590D01*
D02*
G37*
G36*
X418290Y295590D02*
X408270D01*
Y284300D01*
X407000D01*
Y283030D01*
X395710D01*
Y273010D01*
X401861D01*
Y208129D01*
X387638Y193905D01*
X384672Y194700D01*
X384270D01*
Y183270D01*
X395700D01*
Y183672D01*
X394905Y186638D01*
X410634Y202366D01*
X411748Y204034D01*
X412139Y206000D01*
Y273010D01*
X418290D01*
Y277161D01*
X449710D01*
Y271010D01*
X459730D01*
Y282300D01*
Y293590D01*
X449710D01*
Y287439D01*
X418290D01*
Y295590D01*
D02*
G37*
G36*
X584522Y228040D02*
X584470D01*
Y219270D01*
X593240D01*
Y219322D01*
X592556Y221875D01*
X591234Y224165D01*
X589365Y226034D01*
X587075Y227356D01*
X584522Y228040D01*
D02*
G37*
G36*
X581930D02*
X581878D01*
X579325Y227356D01*
X577035Y226034D01*
X575166Y224165D01*
X573844Y221875D01*
X573160Y219322D01*
Y219270D01*
X581930D01*
Y228040D01*
D02*
G37*
G36*
X593240Y216730D02*
X584470D01*
Y207960D01*
X584522D01*
X587075Y208644D01*
X589365Y209966D01*
X591234Y211835D01*
X592556Y214125D01*
X593240Y216678D01*
Y216730D01*
D02*
G37*
G36*
X581930D02*
X573160D01*
Y216678D01*
X573844Y214125D01*
X575166Y211835D01*
X577035Y209966D01*
X579325Y208644D01*
X581878Y207960D01*
X581930D01*
Y216730D01*
D02*
G37*
G36*
X432122Y228040D02*
X429478D01*
X426925Y227356D01*
X424635Y226034D01*
X422766Y224165D01*
X421444Y221875D01*
X420760Y219322D01*
Y216678D01*
X421444Y214125D01*
X422766Y211835D01*
X424635Y209966D01*
X426925Y208644D01*
X429478Y207960D01*
X432122D01*
X434675Y208644D01*
X436965Y209966D01*
X438834Y211835D01*
X440156Y214125D01*
X440840Y216678D01*
Y219322D01*
X440156Y221875D01*
X438834Y224165D01*
X436965Y226034D01*
X434675Y227356D01*
X432122Y228040D01*
D02*
G37*
G36*
X381730Y194700D02*
X381328D01*
X378098Y193834D01*
X375202Y192162D01*
X372837Y189798D01*
X371570Y187603D01*
X370300Y187943D01*
Y194700D01*
X344900D01*
Y169300D01*
X363421D01*
X363907Y168127D01*
X335919Y140139D01*
X318098D01*
X316562Y142798D01*
X314198Y145162D01*
X311302Y146834D01*
X308072Y147700D01*
X307670D01*
Y135000D01*
Y122300D01*
X308072D01*
X311302Y123166D01*
X314198Y124838D01*
X316562Y127202D01*
X318098Y129861D01*
X338048D01*
X340014Y130252D01*
X341681Y131366D01*
X379977Y169662D01*
X381328Y169300D01*
X381730D01*
Y182000D01*
Y194700D01*
D02*
G37*
G36*
X395700Y180730D02*
X384270D01*
Y169300D01*
X384672D01*
X387902Y170166D01*
X390798Y171838D01*
X393162Y174202D01*
X394835Y177098D01*
X395700Y180328D01*
Y180730D01*
D02*
G37*
G36*
X482922Y151840D02*
X480278D01*
X477725Y151156D01*
X475435Y149834D01*
X473566Y147965D01*
X472244Y145675D01*
X471560Y143122D01*
Y140478D01*
X472244Y137925D01*
X473566Y135635D01*
X475435Y133766D01*
X477725Y132444D01*
X480278Y131760D01*
X482922D01*
X485475Y132444D01*
X487765Y133766D01*
X489634Y135635D01*
X490956Y137925D01*
X491640Y140478D01*
Y143122D01*
X490956Y145675D01*
X489634Y147965D01*
X487765Y149834D01*
X485475Y151156D01*
X482922Y151840D01*
D02*
G37*
G36*
X457522D02*
X454878D01*
X452325Y151156D01*
X450035Y149834D01*
X448166Y147965D01*
X446844Y145675D01*
X446160Y143122D01*
Y140478D01*
X446844Y137925D01*
X448166Y135635D01*
X450035Y133766D01*
X452325Y132444D01*
X454878Y131760D01*
X457522D01*
X460075Y132444D01*
X462365Y133766D01*
X464234Y135635D01*
X465556Y137925D01*
X466240Y140478D01*
Y143122D01*
X465556Y145675D01*
X464234Y147965D01*
X462365Y149834D01*
X460075Y151156D01*
X457522Y151840D01*
D02*
G37*
G36*
X428170Y176890D02*
X425830D01*
X423569Y176284D01*
X421541Y175114D01*
X419886Y173459D01*
X418716Y171431D01*
X418110Y169170D01*
Y166830D01*
X418716Y164569D01*
X419886Y162541D01*
X421541Y160886D01*
X423569Y159716D01*
X425830Y159110D01*
X426681D01*
Y151015D01*
X424635Y149834D01*
X422766Y147965D01*
X421444Y145675D01*
X420760Y143122D01*
Y140478D01*
X421444Y137925D01*
X422766Y135635D01*
X424635Y133766D01*
X426925Y132444D01*
X429478Y131760D01*
X432122D01*
X434675Y132444D01*
X436965Y133766D01*
X438834Y135635D01*
X440156Y137925D01*
X440840Y140478D01*
Y143122D01*
X440156Y145675D01*
X438834Y147965D01*
X436965Y149834D01*
X434919Y151015D01*
Y161575D01*
X434606Y163151D01*
X434531Y163264D01*
X435284Y164569D01*
X435890Y166830D01*
Y169170D01*
X435284Y171431D01*
X434114Y173459D01*
X432459Y175114D01*
X430431Y176284D01*
X428170Y176890D01*
D02*
G37*
G36*
X389588Y113540D02*
X386812D01*
X384132Y112822D01*
X381728Y111434D01*
X379766Y109472D01*
X378378Y107068D01*
X377660Y104388D01*
Y101612D01*
X378378Y98932D01*
X379766Y96528D01*
X381728Y94566D01*
X384132Y93178D01*
X386812Y92460D01*
X389588D01*
X392268Y93178D01*
X394672Y94566D01*
X396634Y96528D01*
X398022Y98932D01*
X398740Y101612D01*
Y104388D01*
X398022Y107068D01*
X396634Y109472D01*
X394672Y111434D01*
X392268Y112822D01*
X389588Y113540D01*
D02*
G37*
G36*
X536040Y306540D02*
X528770D01*
Y299270D01*
X536040D01*
Y306540D01*
D02*
G37*
G36*
X772230Y312540D02*
X763460D01*
Y303770D01*
X772230D01*
Y312540D01*
D02*
G37*
G36*
Y301230D02*
X763460D01*
Y292460D01*
X772230D01*
Y301230D01*
D02*
G37*
G36*
X642040Y281540D02*
X634770D01*
Y274270D01*
X642040D01*
Y281540D01*
D02*
G37*
G36*
X551140Y101730D02*
X541870D01*
Y92460D01*
X541988D01*
X544668Y93178D01*
X547072Y94566D01*
X549034Y96528D01*
X550422Y98932D01*
X551140Y101612D01*
Y101730D01*
D02*
G37*
G36*
X541988Y81540D02*
X541870D01*
Y72270D01*
X551140D01*
Y72388D01*
X550422Y75068D01*
X549034Y77472D01*
X547072Y79434D01*
X544668Y80822D01*
X541988Y81540D01*
D02*
G37*
G36*
X551140Y69730D02*
X541870D01*
Y60460D01*
X541988D01*
X544668Y61178D01*
X547072Y62566D01*
X549034Y64528D01*
X550422Y66932D01*
X551140Y69612D01*
Y69730D01*
D02*
G37*
G36*
X513930D02*
X504660D01*
Y69612D01*
X505378Y66932D01*
X506766Y64528D01*
X508728Y62566D01*
X511132Y61178D01*
X513812Y60460D01*
X513930D01*
Y69730D01*
D02*
G37*
%LPD*%
D24*
X570000Y298000D02*
D03*
X571400Y255000D02*
D03*
X633500Y273000D02*
D03*
X633500Y243000D02*
D03*
X527500Y298000D02*
D03*
X115500Y149000D02*
D03*
X72000D02*
D03*
D25*
X595000Y298000D02*
D03*
X522600Y255000D02*
D03*
X658500Y273000D02*
D03*
X658500Y243000D02*
D03*
X552500Y298000D02*
D03*
X140500Y149000D02*
D03*
X97000D02*
D03*
D39*
X255000Y271000D02*
D03*
Y302000D02*
D03*
X112000Y301000D02*
D03*
Y271000D02*
D03*
X218000Y41000D02*
D03*
D40*
X355000Y271000D02*
D03*
Y302000D02*
D03*
X212000Y301000D02*
D03*
Y271000D02*
D03*
X318000Y41000D02*
D03*
D41*
X407000Y309700D02*
D03*
X461000Y307700D02*
D03*
D42*
X407000Y284300D02*
D03*
X461000Y282300D02*
D03*
D45*
X780000Y59000D02*
Y199000D01*
X777000Y56000D02*
X780000Y59000D01*
X761000Y218000D02*
X780000Y199000D01*
X557800Y141800D02*
X583200D01*
X608600Y167200D01*
Y218000D01*
X427000Y165375D02*
X430800Y161575D01*
Y141800D02*
Y161575D01*
X427000Y165375D02*
Y168000D01*
X387630Y43880D02*
X575123D01*
X381517Y49993D02*
X387630Y43880D01*
X575123D02*
X589000Y57757D01*
X318000Y41000D02*
X326993Y49993D01*
X381517D01*
X166000Y74000D02*
X216700D01*
X761000Y71000D02*
Y103000D01*
X590757Y56000D02*
X777000D01*
X761000Y103000D02*
Y141800D01*
X517460Y262575D02*
Y305673D01*
X532907Y321120D01*
X507000Y303048D02*
X539152Y335200D01*
X481600Y218000D02*
Y285483D01*
X532907Y321120D02*
X624579D01*
X507000Y218000D02*
Y303048D01*
X481600Y285483D02*
X536857Y340740D01*
X577740D01*
X539152Y335200D02*
X597600D01*
X583994Y114006D02*
X589000Y109000D01*
Y57757D02*
Y109000D01*
Y57757D02*
X590757Y56000D01*
X204077Y260710D02*
X219923D01*
X216750Y284463D02*
X222290Y278923D01*
X204077Y260710D02*
X213596Y251191D01*
X222290Y263077D02*
Y278923D01*
X213596Y251191D02*
X242349D01*
X122290Y260710D02*
X204077D01*
X219923D02*
X222290Y263077D01*
X112000Y271000D02*
X122290Y260710D01*
X242349Y251191D02*
X269000Y224540D01*
X446210Y322490D02*
X461000Y307700D01*
X396269Y322490D02*
X446210D01*
X595000Y231600D02*
X608600Y218000D01*
X756978Y234691D02*
X770172D01*
X748679Y226392D02*
X756978Y234691D01*
X748679Y160679D02*
Y226392D01*
X522600Y255000D02*
Y257435D01*
X517460Y262575D02*
X522600Y257435D01*
Y255000D02*
X532400Y245200D01*
X624579Y321120D02*
X668540Y277159D01*
X602017Y274818D02*
X605040Y277841D01*
X595000Y231600D02*
Y298000D01*
X584960Y293841D02*
X589460Y289341D01*
X599159Y308040D02*
X605040Y302159D01*
X571400Y255000D02*
X589460Y273060D01*
X584960Y293841D02*
Y302159D01*
X602017Y250500D02*
Y274818D01*
X590841Y308040D02*
X599159D01*
X589460Y273060D02*
Y289341D01*
X584960Y302159D02*
X590841Y308040D01*
X605040Y277841D02*
Y302159D01*
X619557Y232960D02*
X641173D01*
X602017Y250500D02*
X619557Y232960D01*
X557800Y218000D02*
X571400Y231600D01*
Y255000D01*
X597600Y335200D02*
X638400Y376000D01*
X577740Y340740D02*
X613000Y376000D01*
X451040Y115040D02*
X582960D01*
X583994Y114006D01*
X358193Y288277D02*
X363993Y282478D01*
X344710Y294077D02*
Y309923D01*
X375779Y302000D02*
X396269Y322490D01*
X392000Y357213D02*
Y375000D01*
X344710Y309923D02*
X392000Y357213D01*
X350509Y288277D02*
X358193D01*
X344710Y294077D02*
X350509Y288277D01*
X355000Y302000D02*
X375779D01*
X387172Y289872D02*
X407000Y309700D01*
X362923Y260710D02*
X387172Y284958D01*
Y289872D01*
X391900Y375100D02*
X392000Y375000D01*
X347077Y260710D02*
X362923D01*
X355000Y271000D02*
X363993Y279993D01*
Y282478D01*
X255000Y271000D02*
X336787D01*
X347077Y260710D01*
X753000Y343320D02*
X765400Y355720D01*
X753000Y268319D02*
Y343320D01*
X740000Y313491D02*
Y376000D01*
X702310Y252391D02*
X710329Y260410D01*
X682000Y252301D02*
Y357800D01*
X684800Y218000D02*
X694740Y227940D01*
X663800Y376000D02*
X682000Y357800D01*
X721740Y160637D02*
Y220460D01*
X719691Y260410D02*
X727710Y268429D01*
X710329Y260410D02*
X719691D01*
X721740Y220460D02*
X726890Y225610D01*
X702310Y227080D02*
Y252391D01*
X694740Y227940D02*
Y356140D01*
X710200Y218000D02*
Y219191D01*
X659239Y229540D02*
X682000Y252301D01*
X689200Y247800D02*
Y376000D01*
X702310Y227080D02*
X710200Y219191D01*
X659400Y218000D02*
X689200Y247800D01*
X745923Y261243D02*
X753000Y268319D01*
X727710Y301201D02*
X740000Y313491D01*
X712400Y436000D02*
X740400Y408000D01*
X740200Y376200D02*
Y407800D01*
X740400Y408000D01*
X740000Y376000D02*
X740200Y376200D01*
X58000Y436000D02*
X712400D01*
X765400Y355720D02*
Y376000D01*
X714600Y272700D02*
Y289097D01*
X720040Y294537D01*
Y335960D01*
X708500Y347500D02*
X720040Y335960D01*
X785040Y241725D02*
Y335960D01*
X777690Y242209D02*
Y260410D01*
X772467Y229151D02*
X785040Y241725D01*
X765400Y272700D02*
X777690Y260410D01*
X761000Y218000D02*
X772151Y229151D01*
X773500Y347500D02*
X785040Y335960D01*
X770172Y234691D02*
X777690Y242209D01*
X772151Y229151D02*
X772467D01*
X626925Y158880D02*
X719983D01*
X721740Y160637D01*
X622045Y154000D02*
X626925Y158880D01*
X597060Y146580D02*
X604480Y154000D01*
X629220Y153340D02*
X741340D01*
X622460Y146580D02*
X629220Y153340D01*
X604480Y154000D02*
X622045D01*
X607840Y124720D02*
X622460Y139340D01*
X532400Y141800D02*
X543940Y130260D01*
X745923Y258757D02*
Y261243D01*
Y258757D02*
X752290Y252391D01*
Y237838D02*
Y252391D01*
X735600Y221148D02*
X752290Y237838D01*
X726890Y225610D02*
Y259590D01*
X735600Y218000D02*
Y221148D01*
X726890Y259590D02*
X740000Y272700D01*
X524080Y124720D02*
X607840D01*
X587980Y130260D02*
X597060Y139340D01*
X507000Y141800D02*
X524080Y124720D01*
X597060Y139340D02*
Y146580D01*
X543940Y130260D02*
X587980D01*
X741340Y153340D02*
X748679Y160679D01*
X694740Y356140D02*
X714600Y376000D01*
X622460Y139340D02*
Y146580D01*
X727710Y268429D02*
Y301201D01*
X710200Y103000D02*
Y141800D01*
X735600Y71000D02*
Y103000D01*
Y141800D01*
X532400Y218000D02*
Y245200D01*
X634048Y218000D02*
X645588Y229540D01*
X659239D01*
X658500Y243000D02*
X668540Y253040D01*
Y277159D01*
X648460Y240247D02*
Y262960D01*
X641173Y232960D02*
X648460Y240247D01*
X634000Y218000D02*
X634048D01*
X648460Y262960D02*
X658500Y273000D01*
X659400Y103000D02*
Y141800D01*
Y71000D02*
Y103000D01*
X164000Y76000D02*
X166000Y74000D01*
X216750Y284463D02*
Y296250D01*
X212000Y301000D02*
X216750Y296250D01*
X269000Y222000D02*
Y224540D01*
X34960Y412960D02*
X58000Y436000D01*
X24000Y411000D02*
X57000Y444000D01*
X729800D02*
X765800Y408000D01*
X57000Y444000D02*
X729800D01*
X24000Y377000D02*
Y411000D01*
X44600Y356400D02*
X47000D01*
X24000Y377000D02*
X44600Y356400D01*
X34960Y393840D02*
Y412960D01*
Y393840D02*
X47000Y381800D01*
X518900Y375100D02*
Y406900D01*
Y375100D02*
X519000Y375000D01*
X518800Y407000D02*
X518900Y406900D01*
X493500Y375100D02*
Y406900D01*
X493400Y407000D02*
X493500Y406900D01*
Y375100D02*
X493600Y375000D01*
X468100Y375100D02*
Y406900D01*
X468000Y407000D02*
X468100Y406900D01*
Y375100D02*
X468200Y375000D01*
X442700Y375100D02*
Y406900D01*
X442600Y407000D02*
X442700Y406900D01*
Y375100D02*
X442800Y375000D01*
X417200Y407000D02*
X417300Y406900D01*
Y375100D02*
Y406900D01*
Y375100D02*
X417400Y375000D01*
X391900Y375100D02*
Y406900D01*
X391800Y407000D02*
X391900Y406900D01*
X587800Y376200D02*
Y407800D01*
X587600Y376000D02*
X587800Y376200D01*
Y407800D02*
X588000Y408000D01*
X613200Y376200D02*
Y407800D01*
X613400Y408000D01*
X613000Y376000D02*
X613200Y376200D01*
X638600D02*
Y407800D01*
X638800Y408000D01*
X638400Y376000D02*
X638600Y376200D01*
X664000D02*
Y407800D01*
X664200Y408000D01*
X663800Y376000D02*
X664000Y376200D01*
X689400D02*
Y407800D01*
X689600Y408000D01*
X689200Y376000D02*
X689400Y376200D01*
X714800D02*
Y407800D01*
X715000Y408000D01*
X714600Y376000D02*
X714800Y376200D01*
X765400Y376000D02*
X765600Y376200D01*
Y407800D02*
X765800Y408000D01*
X765600Y376200D02*
Y407800D01*
X439000Y103000D02*
X451040Y115040D01*
X634000Y103000D02*
Y141800D01*
Y71000D02*
Y103000D01*
X439000Y71000D02*
Y103000D01*
X684800D02*
Y141800D01*
X710200Y71000D02*
Y103000D01*
X684800Y71000D02*
Y103000D01*
D46*
X326338Y29710D02*
X328048Y28000D01*
X411000D01*
X309662Y29710D02*
X326338D01*
X71904Y239740D02*
X88400D01*
X60960Y140912D02*
Y228796D01*
X88400Y239740D02*
X103600Y224540D01*
Y157494D02*
Y222000D01*
Y224540D01*
X60960Y228796D02*
X71904Y239740D01*
X50165Y302435D02*
X110565D01*
X47000Y305600D02*
X50165Y302435D01*
X110565D02*
X112000Y301000D01*
X374259Y66500D02*
X390339Y50420D01*
X545420D01*
X566000Y71000D01*
X298372Y41000D02*
X309662Y29710D01*
X218000Y41000D02*
X298372D01*
X281000Y114300D02*
Y135000D01*
Y114300D02*
X321300Y74000D01*
X328800Y66500D02*
X374259D01*
X321300Y74000D02*
X328800Y66500D01*
X413600Y71000D02*
Y103000D01*
X195000Y149000D02*
X209000Y135000D01*
X170402Y114126D02*
X188126D01*
X140500Y149000D02*
X195000D01*
X188126Y114126D02*
X209000Y135000D01*
X132000Y75724D02*
X170402Y114126D01*
X306400Y135000D02*
X338048D01*
X383000Y179952D01*
X407000Y284300D02*
X409000Y282300D01*
X407000Y206000D02*
Y284300D01*
X461000Y282300D02*
X474321Y268979D01*
X409000Y282300D02*
X461000D01*
X469060Y238262D02*
X474321Y243523D01*
Y268979D01*
X469060Y212806D02*
Y238262D01*
Y212806D02*
X476406Y205460D01*
X537594D01*
X476760Y57960D02*
X489800Y71000D01*
X515200D02*
X540600D01*
X426640Y57960D02*
X476760D01*
X413600Y71000D02*
X426640Y57960D01*
X489800Y71000D02*
Y103000D01*
X265800Y154609D02*
X284200Y173009D01*
Y236788D01*
X265800Y88800D02*
Y154609D01*
X126540Y140912D02*
Y219540D01*
X218000Y41000D02*
X265800Y88800D01*
X116048Y130420D02*
X126540Y140912D01*
X234400Y135000D02*
Y206114D01*
X243600Y215314D02*
Y222000D01*
X234400Y206114D02*
X243600Y215314D01*
X126540Y219540D02*
X129000Y222000D01*
X243600D02*
Y224540D01*
X223489Y244651D02*
X243600Y224540D01*
X122382Y244651D02*
X223489D01*
X100710Y266324D02*
X122382Y244651D01*
X100710Y266324D02*
Y277002D01*
X110958Y287250D01*
Y299958D01*
X112000Y301000D01*
X200710Y292662D02*
X208622Y284750D01*
Y274378D02*
X212000Y271000D01*
X200710Y330152D02*
X210000Y339442D01*
X208622Y274378D02*
Y284750D01*
X200710Y292662D02*
Y330152D01*
X210000Y339442D02*
Y384000D01*
X85000Y380400D02*
X128956D01*
X140147Y369210D02*
X181126D01*
X191072Y379156D01*
Y388844D01*
X209228Y407000D01*
X128956Y380400D02*
X140147Y369210D01*
X315800Y375000D02*
X328840Y361960D01*
X353560D01*
X267455D02*
X302760D01*
X315800Y375000D01*
X243710Y266324D02*
Y290710D01*
Y266324D02*
X258478Y251556D01*
X269432D01*
X284200Y236788D01*
X243710Y290710D02*
X255000Y302000D01*
X78200Y186300D02*
Y222000D01*
X85960Y144427D02*
Y178540D01*
X97000Y149000D02*
Y150894D01*
X103600Y157494D01*
X78200Y186300D02*
X85960Y178540D01*
X129000Y222000D02*
X218200D01*
X60960Y140912D02*
X80916Y120956D01*
X82044D01*
X102000Y101000D01*
Y76000D02*
Y101000D01*
X89304Y130420D02*
X116048D01*
X78420Y141304D02*
X89304Y130420D01*
X72000Y149000D02*
X78420Y142580D01*
X85960Y144427D02*
X92427Y137960D01*
X78420Y141304D02*
Y142580D01*
X92427Y137960D02*
X104460D01*
X102000Y48000D02*
Y76000D01*
Y48000D02*
X121000Y29000D01*
X132000D01*
Y75724D01*
X383000Y179952D02*
Y182000D01*
X104460Y137960D02*
X115500Y149000D01*
X611580Y281420D02*
Y304868D01*
X620000Y273000D02*
X633500D01*
X578420Y291132D02*
X582920Y286632D01*
X588132Y314580D02*
X601868D01*
X578420Y304868D02*
X588132Y314580D01*
X601868D02*
X611580Y304868D01*
X582920Y275929D02*
Y286632D01*
X611580Y281420D02*
X620000Y273000D01*
X570272D02*
X579991D01*
X582920Y275929D01*
X578420Y291132D02*
Y304868D01*
X570000Y298000D02*
X577644Y290356D01*
X545260Y247988D02*
X570272Y273000D01*
X555000Y283000D02*
X570000Y298000D01*
X530929Y283000D02*
X555000D01*
X545260Y213126D02*
Y247988D01*
X383000Y182000D02*
X407000Y206000D01*
X528000Y285929D02*
X530929Y283000D01*
X528000Y285929D02*
Y297500D01*
X527500Y298000D02*
X528000Y297500D01*
X353560Y361960D02*
X366600Y375000D01*
X537594Y205460D02*
X545260Y213126D01*
X633500Y243000D02*
Y273000D01*
Y243000D02*
X633500Y243000D01*
X345820Y427580D02*
X366400Y407000D01*
X67959Y407200D02*
X88339Y427580D01*
X345820D01*
X366400Y407000D02*
X366500Y406900D01*
X47000Y407200D02*
X67959D01*
X47000Y331000D02*
X66000Y350000D01*
Y386800D01*
X85000Y405800D01*
X209228Y407000D02*
X290200D01*
X290300Y375100D02*
Y406900D01*
X290200Y407000D02*
X303240Y420040D01*
X327960D01*
X245415Y384000D02*
X267455Y361960D01*
X210000Y384000D02*
X245415D01*
X327960Y420040D02*
X341000Y407000D01*
X341100Y406900D01*
X315700Y375100D02*
X315800Y375000D01*
X290200Y407000D02*
X290300Y406900D01*
Y375100D02*
X290400Y375000D01*
X315700Y375100D02*
Y406900D01*
X315600Y407000D02*
X315700Y406900D01*
X341100Y375100D02*
Y406900D01*
Y375100D02*
X341200Y375000D01*
X366500Y375100D02*
Y406900D01*
Y375100D02*
X366600Y375000D01*
X515200Y103000D02*
X540600D01*
X566000Y71000D02*
Y103000D01*
X515200Y71000D02*
Y103000D01*
X464400Y71000D02*
Y103000D01*
D47*
X761000Y218000D02*
D03*
D48*
X735600D02*
D03*
X710200D02*
D03*
X684800D02*
D03*
X659400D02*
D03*
X634000D02*
D03*
X608600D02*
D03*
X583200D02*
D03*
X557800D02*
D03*
X532400D02*
D03*
X507000D02*
D03*
X481600D02*
D03*
X456200D02*
D03*
X430800D02*
D03*
X761000Y141800D02*
D03*
X735600D02*
D03*
X710200D02*
D03*
X684800D02*
D03*
X659400D02*
D03*
X634000D02*
D03*
X608600D02*
D03*
X583200D02*
D03*
X557800D02*
D03*
X532400D02*
D03*
X507000D02*
D03*
X481600D02*
D03*
X456200D02*
D03*
X430800D02*
D03*
X773500Y347500D02*
D03*
X708500D02*
D03*
Y302500D02*
D03*
D49*
X132000Y29000D02*
D03*
D50*
X102000Y76000D02*
D03*
D51*
X164000D02*
D03*
D52*
X587600Y376000D02*
D03*
X613000D02*
D03*
X663800D02*
D03*
X714600D02*
D03*
X740000D02*
D03*
X689200D02*
D03*
X638400D02*
D03*
X290400Y375000D02*
D03*
X315800D02*
D03*
X392000D02*
D03*
X442800D02*
D03*
X493600D02*
D03*
X468200D02*
D03*
X417400D02*
D03*
X366600D02*
D03*
X341200D02*
D03*
X290200Y407000D02*
D03*
X315600D02*
D03*
X391800D02*
D03*
X442600D02*
D03*
X493400D02*
D03*
X468000D02*
D03*
X417200D02*
D03*
X366400D02*
D03*
X341000D02*
D03*
X388200Y71000D02*
D03*
X413600D02*
D03*
X464400D02*
D03*
X515200D02*
D03*
X540600D02*
D03*
X489800D02*
D03*
X439000D02*
D03*
X388200Y103000D02*
D03*
X413600D02*
D03*
X464400D02*
D03*
X515200D02*
D03*
X540600D02*
D03*
X489800D02*
D03*
X439000D02*
D03*
X634000Y71000D02*
D03*
X659400D02*
D03*
X710200D02*
D03*
X735600D02*
D03*
X684800D02*
D03*
X634000Y103000D02*
D03*
X659400D02*
D03*
X710200D02*
D03*
X735600D02*
D03*
X684800D02*
D03*
X638800Y408000D02*
D03*
X689600D02*
D03*
X740400D02*
D03*
X715000D02*
D03*
X664200D02*
D03*
X613400D02*
D03*
X588000D02*
D03*
X47000Y356400D02*
D03*
Y331000D02*
D03*
Y381800D02*
D03*
Y407200D02*
D03*
X85000Y380400D02*
D03*
Y405800D02*
D03*
D53*
X765400Y376000D02*
D03*
X519000Y375000D02*
D03*
X518800Y407000D02*
D03*
X566000Y71000D02*
D03*
Y103000D02*
D03*
X761000Y71000D02*
D03*
Y103000D02*
D03*
X765800Y408000D02*
D03*
D54*
X210000Y384000D02*
D03*
D55*
X175000D02*
D03*
D56*
X765400Y272700D02*
D03*
D57*
Y247300D02*
D03*
X740000Y272700D02*
D03*
X714600D02*
D03*
X740000Y247300D02*
D03*
X714600D02*
D03*
D58*
X47000Y305600D02*
D03*
X85000Y355000D02*
D03*
D59*
X129000Y222000D02*
D03*
X269000D02*
D03*
D60*
X103600D02*
D03*
X78200D02*
D03*
X243600D02*
D03*
X218200D02*
D03*
D61*
X216700Y74000D02*
D03*
D62*
X321300D02*
D03*
D63*
X383000Y182000D02*
D03*
X306400Y135000D02*
D03*
X209000D02*
D03*
D64*
X357600Y182000D02*
D03*
X281000Y135000D02*
D03*
X234400D02*
D03*
D65*
X773500Y302500D02*
D03*
D66*
X427000Y168000D02*
D03*
X411000Y28000D02*
D03*
M02*
