G04*
G04 #@! TF.GenerationSoftware,Altium Limited,Altium Designer,21.3.2 (30)*
G04*
G04 Layer_Color=32768*
%FSLAX44Y44*%
%MOMM*%
G71*
G04*
G04 #@! TF.SameCoordinates,7FAD31E7-CA04-41FB-AB92-AE363CD61F23*
G04*
G04*
G04 #@! TF.FilePolarity,Positive*
G04*
G01*
G75*
%ADD10C,0.2000*%
%ADD68C,0.1000*%
%ADD69C,0.0500*%
D10*
X407000Y272834D02*
G03*
X407000Y321166I0J24166D01*
G01*
D02*
G03*
X407000Y272834I0J-24166D01*
G01*
X461000Y270834D02*
G03*
X461000Y319166I0J24166D01*
G01*
D02*
G03*
X461000Y270834I0J-24166D01*
G01*
X563000Y311500D02*
X602000D01*
Y284500D02*
Y311500D01*
X563000Y284500D02*
X602000D01*
X563000D02*
Y311500D01*
X626500Y286500D02*
X665500D01*
Y259500D02*
Y286500D01*
X626500Y259500D02*
X665500D01*
X626500D02*
Y286500D01*
X626500Y256500D02*
X665500D01*
Y229500D02*
Y256500D01*
X626500Y229500D02*
X665500D01*
X626500D02*
Y256500D01*
X520500Y311500D02*
X559500D01*
Y284500D02*
Y311500D01*
X520500Y284500D02*
X559500D01*
X520500D02*
Y311500D01*
X108500Y135500D02*
Y162500D01*
Y135500D02*
X147500D01*
Y162500D01*
X108500D02*
X147500D01*
X362250Y257500D02*
Y284500D01*
X247750D02*
X362250D01*
X247750Y257500D02*
Y284500D01*
Y257500D02*
X362250D01*
Y288500D02*
Y315500D01*
X247750D02*
X362250D01*
X247750Y288500D02*
Y315500D01*
Y288500D02*
X362250D01*
X65000Y135500D02*
Y162500D01*
Y135500D02*
X104000D01*
Y162500D01*
X65000D02*
X104000D01*
X219250Y287500D02*
Y314500D01*
X104750D02*
X219250D01*
X104750Y287500D02*
Y314500D01*
Y287500D02*
X219250D01*
Y257500D02*
Y284500D01*
X104750D02*
X219250D01*
X104750Y257500D02*
Y284500D01*
Y257500D02*
X219250D01*
X325250Y27500D02*
Y54500D01*
X210750D02*
X325250D01*
X210750Y27500D02*
Y54500D01*
Y27500D02*
X325250D01*
D68*
X595900Y174900D02*
Y184900D01*
X590900Y179900D02*
X600900D01*
X102000Y71000D02*
Y81000D01*
X97000Y76000D02*
X107000D01*
X542000Y255000D02*
X552000D01*
X547000Y250000D02*
Y260000D01*
X736000Y325000D02*
X746000D01*
X741000Y320000D02*
Y330000D01*
D69*
X604563Y270991D02*
G03*
X595500Y279250I-8750J-500D01*
G01*
X595313Y230750D02*
G03*
X604563Y239000I500J8750D01*
G01*
X489250D02*
G03*
X498500Y230750I8750J500D01*
G01*
X498313Y279250D02*
G03*
X489250Y270991I-313J-8759D01*
G01*
X171500Y21500D02*
Y122000D01*
X24000Y21500D02*
X171500D01*
X24000D02*
Y122000D01*
X171500D01*
X571400Y360550D02*
X781600D01*
X571400D02*
Y391450D01*
X781600D01*
Y360550D02*
Y391450D01*
X604563Y239000D02*
Y270991D01*
X489250Y239000D02*
Y270991D01*
X498500Y279250D02*
X595500D01*
X498500Y230750D02*
X595500D01*
X535200Y359550D02*
Y390450D01*
X274200D02*
X535200D01*
X274200Y359550D02*
Y390450D01*
Y359550D02*
X535200D01*
X535000Y391550D02*
Y422450D01*
X274000D02*
X535000D01*
X274000Y391550D02*
Y422450D01*
Y391550D02*
X535000D01*
X372000Y55550D02*
X582200D01*
X372000D02*
Y86450D01*
X582200D01*
Y55550D02*
Y86450D01*
X372000Y87550D02*
X582200D01*
X372000D02*
Y118450D01*
X582200D01*
Y87550D02*
Y118450D01*
X617800Y55550D02*
X777200D01*
X617800D02*
Y86450D01*
X777200D01*
Y55550D02*
Y86450D01*
X617800Y87550D02*
X777200D01*
X617800D02*
Y118450D01*
X777200D01*
Y87550D02*
Y118450D01*
X155500Y342000D02*
X233500D01*
X155500D02*
Y420000D01*
X233500D01*
Y342000D02*
Y420000D01*
X782000Y392550D02*
Y423450D01*
X571800D02*
X782000D01*
X571800Y392550D02*
Y423450D01*
Y392550D02*
X782000D01*
X781600Y231850D02*
Y288150D01*
X698400D02*
X781600D01*
X698400Y231850D02*
Y288150D01*
Y231850D02*
X781600D01*
X31550Y289400D02*
Y423400D01*
X62450D01*
Y289400D02*
Y423400D01*
X31550Y289400D02*
X62450D01*
X69550Y338800D02*
Y422000D01*
X100450D01*
Y338800D02*
Y422000D01*
X69550Y338800D02*
X100450D01*
X700000Y356000D02*
X782000D01*
Y294000D02*
Y356000D01*
X700000Y294000D02*
X782000D01*
X700000D02*
Y356000D01*
M02*
