G04*
G04 #@! TF.GenerationSoftware,Altium Limited,Altium Designer,21.3.2 (30)*
G04*
G04 Layer_Physical_Order=2*
G04 Layer_Color=16711680*
%FSLAX44Y44*%
%MOMM*%
G71*
G04*
G04 #@! TF.SameCoordinates,7FAD31E7-CA04-41FB-AB92-AE363CD61F23*
G04*
G04*
G04 #@! TF.FilePolarity,Positive*
G04*
G01*
G75*
%ADD24R,1.2000X1.2000*%
%ADD25C,1.2000*%
%ADD39C,1.2500*%
%ADD40R,1.2500X1.2500*%
%ADD41C,1.7500*%
%ADD42R,1.7500X1.7500*%
%ADD45C,0.3000*%
%ADD46C,0.5000*%
%ADD47R,1.5000X1.5000*%
%ADD48C,1.5000*%
G04:AMPARAMS|DCode=49|XSize=3.5mm|YSize=1.3mm|CornerRadius=0.325mm|HoleSize=0mm|Usage=FLASHONLY|Rotation=180.000|XOffset=0mm|YOffset=0mm|HoleType=Round|Shape=RoundedRectangle|*
%AMROUNDEDRECTD49*
21,1,3.5000,0.6500,0,0,180.0*
21,1,2.8500,1.3000,0,0,180.0*
1,1,0.6500,-1.4250,0.3250*
1,1,0.6500,1.4250,0.3250*
1,1,0.6500,1.4250,-0.3250*
1,1,0.6500,-1.4250,-0.3250*
%
%ADD49ROUNDEDRECTD49*%
G04:AMPARAMS|DCode=50|XSize=3.5mm|YSize=1.3mm|CornerRadius=0.325mm|HoleSize=0mm|Usage=FLASHONLY|Rotation=90.000|XOffset=0mm|YOffset=0mm|HoleType=Round|Shape=RoundedRectangle|*
%AMROUNDEDRECTD50*
21,1,3.5000,0.6500,0,0,90.0*
21,1,2.8500,1.3000,0,0,90.0*
1,1,0.6500,0.3250,1.4250*
1,1,0.6500,0.3250,-1.4250*
1,1,0.6500,-0.3250,-1.4250*
1,1,0.6500,-0.3250,1.4250*
%
%ADD50ROUNDEDRECTD50*%
G04:AMPARAMS|DCode=51|XSize=4mm|YSize=1.3mm|CornerRadius=0.325mm|HoleSize=0mm|Usage=FLASHONLY|Rotation=90.000|XOffset=0mm|YOffset=0mm|HoleType=Round|Shape=RoundedRectangle|*
%AMROUNDEDRECTD51*
21,1,4.0000,0.6500,0,0,90.0*
21,1,3.3500,1.3000,0,0,90.0*
1,1,0.6500,0.3250,1.6750*
1,1,0.6500,0.3250,-1.6750*
1,1,0.6500,-0.3250,-1.6750*
1,1,0.6500,-0.3250,1.6750*
%
%ADD51ROUNDEDRECTD51*%
%ADD52C,1.6000*%
G04:AMPARAMS|DCode=53|XSize=1.6mm|YSize=1.6mm|CornerRadius=0.4mm|HoleSize=0mm|Usage=FLASHONLY|Rotation=180.000|XOffset=0mm|YOffset=0mm|HoleType=Round|Shape=RoundedRectangle|*
%AMROUNDEDRECTD53*
21,1,1.6000,0.8000,0,0,180.0*
21,1,0.8000,1.6000,0,0,180.0*
1,1,0.8000,-0.4000,0.4000*
1,1,0.8000,0.4000,0.4000*
1,1,0.8000,0.4000,-0.4000*
1,1,0.8000,-0.4000,-0.4000*
%
%ADD53ROUNDEDRECTD53*%
G04:AMPARAMS|DCode=54|XSize=1.95mm|YSize=1.95mm|CornerRadius=0.4875mm|HoleSize=0mm|Usage=FLASHONLY|Rotation=180.000|XOffset=0mm|YOffset=0mm|HoleType=Round|Shape=RoundedRectangle|*
%AMROUNDEDRECTD54*
21,1,1.9500,0.9750,0,0,180.0*
21,1,0.9750,1.9500,0,0,180.0*
1,1,0.9750,-0.4875,0.4875*
1,1,0.9750,0.4875,0.4875*
1,1,0.9750,0.4875,-0.4875*
1,1,0.9750,-0.4875,-0.4875*
%
%ADD54ROUNDEDRECTD54*%
%ADD55C,1.9500*%
G04:AMPARAMS|DCode=56|XSize=1.65mm|YSize=1.65mm|CornerRadius=0.4125mm|HoleSize=0mm|Usage=FLASHONLY|Rotation=180.000|XOffset=0mm|YOffset=0mm|HoleType=Round|Shape=RoundedRectangle|*
%AMROUNDEDRECTD56*
21,1,1.6500,0.8250,0,0,180.0*
21,1,0.8250,1.6500,0,0,180.0*
1,1,0.8250,-0.4125,0.4125*
1,1,0.8250,0.4125,0.4125*
1,1,0.8250,0.4125,-0.4125*
1,1,0.8250,-0.4125,-0.4125*
%
%ADD56ROUNDEDRECTD56*%
%ADD57C,1.6500*%
G04:AMPARAMS|DCode=58|XSize=1.6mm|YSize=1.6mm|CornerRadius=0.4mm|HoleSize=0mm|Usage=FLASHONLY|Rotation=90.000|XOffset=0mm|YOffset=0mm|HoleType=Round|Shape=RoundedRectangle|*
%AMROUNDEDRECTD58*
21,1,1.6000,0.8000,0,0,90.0*
21,1,0.8000,1.6000,0,0,90.0*
1,1,0.8000,0.4000,0.4000*
1,1,0.8000,0.4000,-0.4000*
1,1,0.8000,-0.4000,-0.4000*
1,1,0.8000,-0.4000,0.4000*
%
%ADD58ROUNDEDRECTD58*%
%ADD59R,2.0320X2.5400*%
%ADD60O,2.0320X2.5400*%
%ADD61C,2.0000*%
%ADD62R,2.0000X2.0000*%
%ADD63C,2.0320*%
%ADD64R,2.0320X2.0320*%
%ADD65R,1.5000X1.5000*%
%ADD66C,1.2700*%
D24*
X570000Y298000D02*
D03*
X571400Y255000D02*
D03*
X633500Y273000D02*
D03*
X633500Y243000D02*
D03*
X527500Y298000D02*
D03*
X115500Y149000D02*
D03*
X72000D02*
D03*
D25*
X595000Y298000D02*
D03*
X522600Y255000D02*
D03*
X658500Y273000D02*
D03*
X658500Y243000D02*
D03*
X552500Y298000D02*
D03*
X140500Y149000D02*
D03*
X97000D02*
D03*
D39*
X255000Y271000D02*
D03*
Y302000D02*
D03*
X112000Y301000D02*
D03*
Y271000D02*
D03*
X218000Y41000D02*
D03*
D40*
X355000Y271000D02*
D03*
Y302000D02*
D03*
X212000Y301000D02*
D03*
Y271000D02*
D03*
X318000Y41000D02*
D03*
D41*
X407000Y309700D02*
D03*
X461000Y307700D02*
D03*
D42*
X407000Y284300D02*
D03*
X461000Y282300D02*
D03*
D45*
X789000Y297286D02*
Y355243D01*
X778480Y286767D02*
X789000Y297286D01*
X780283Y363960D02*
X789000Y355243D01*
X582613Y363960D02*
X780283D01*
X759670Y286767D02*
X778480D01*
X753110Y260410D02*
Y280207D01*
X759670Y286767D01*
X740000Y247300D02*
X753110Y260410D01*
X562327Y308040D02*
X584960D01*
X552500Y298213D02*
X562327Y308040D01*
X552500Y298000D02*
Y298213D01*
X584960Y308040D02*
X595000Y298000D01*
X460600Y425000D02*
X528005D01*
X456200Y244600D02*
X531040Y319440D01*
X437613Y394960D02*
X447587D01*
X455300Y411327D02*
X463013Y419040D01*
X530840Y382530D02*
Y414330D01*
X456200Y218000D02*
Y244600D01*
X430560Y402013D02*
X437613Y394960D01*
X430560Y402013D02*
Y411987D01*
X555309Y391264D02*
Y397696D01*
X533060Y430540D02*
X587600Y376000D01*
X455300Y402673D02*
Y411327D01*
X450660Y237860D02*
Y246895D01*
X531040Y319440D02*
Y382330D01*
X430800Y218000D02*
X450660Y237860D01*
X447587Y394960D02*
X455300Y402673D01*
X555309Y391264D02*
X582613Y363960D01*
X478000Y274235D02*
Y334000D01*
X450660Y246895D02*
X478000Y274235D01*
X528005Y425000D02*
X555309Y397696D01*
X463013Y419040D02*
X526130D01*
X530840Y414330D01*
X449113Y430540D02*
X533060D01*
X430560Y411987D02*
X449113Y430540D01*
X530840Y382530D02*
X531040Y382330D01*
X442600Y407000D02*
X460600Y425000D01*
X478000Y334000D02*
X519000Y375000D01*
X413720Y230205D02*
X430870Y247355D01*
X408180Y232500D02*
X425330Y249650D01*
X397200Y128078D02*
Y187882D01*
X436410Y316551D02*
X468200Y348341D01*
X436410Y245060D02*
Y316551D01*
X419260Y227910D02*
X436410Y245060D01*
X402640Y234795D02*
X419790Y251945D01*
X355000Y271000D02*
X397100Y228900D01*
X404920Y124411D02*
X406677Y122653D01*
X397100Y187982D02*
Y228900D01*
X397420Y126951D02*
X399380Y122116D01*
X404920Y124411D02*
Y187997D01*
X442340Y155660D02*
Y183704D01*
X397100Y187982D02*
X397200Y187882D01*
X413404Y128622D02*
X464313Y126999D01*
X411378Y129499D02*
X412217Y128660D01*
X408180Y192571D02*
Y232500D01*
X412217Y128660D02*
X413404Y128622D01*
X419260Y206784D02*
Y227910D01*
Y206784D02*
X442340Y183704D01*
X410460Y130417D02*
X411378Y129499D01*
X413720Y204490D02*
Y230205D01*
X397200Y128078D02*
X397420Y126951D01*
X427000Y168000D02*
Y191210D01*
X408180Y192571D02*
X410460Y190291D01*
Y130417D02*
Y190291D01*
X402640Y190277D02*
Y234795D01*
Y190277D02*
X404920Y187997D01*
X413720Y204490D02*
X427000Y191210D01*
X430870Y247355D02*
Y318846D01*
X425330Y249650D02*
Y357530D01*
X419790Y251945D02*
Y314998D01*
X430870Y318846D02*
X454840Y342816D01*
X468200Y348341D02*
Y375000D01*
X454840Y342816D02*
Y378667D01*
X463213Y387040D02*
X481560D01*
X493600Y375000D01*
X454840Y378667D02*
X463213Y387040D01*
X708500Y347500D02*
X773500D01*
X442340Y155660D02*
X456200Y141800D01*
X417400Y317388D02*
X419790Y314998D01*
X464313Y126999D02*
X466799Y126999D01*
X462019Y121459D02*
X486659D01*
X406677Y122653D02*
X462019Y121459D01*
X459724Y115919D02*
X506519D01*
X404383Y117113D02*
X459724Y115919D01*
X399380Y122116D02*
X404383Y117113D01*
X486659Y121459D02*
X507000Y141800D01*
X506519Y115919D02*
X532400Y141800D01*
X466799Y126999D02*
X481600Y141800D01*
X425330Y357530D02*
X442800Y375000D01*
X417400Y317388D02*
Y375000D01*
D46*
X757785Y47000D02*
X774040Y63256D01*
X765400Y244188D02*
X774040Y235548D01*
Y63256D02*
Y235548D01*
X701310Y260590D02*
X714600Y247300D01*
X583200Y167200D02*
Y218000D01*
Y167200D02*
X608600Y141800D01*
X708500Y302500D02*
X773500D01*
X701310Y279900D02*
X708500Y287090D01*
Y302500D01*
X701310Y260590D02*
Y279900D01*
X711488Y247300D02*
X714600D01*
X704748Y254040D02*
X711488Y247300D01*
X653927Y254040D02*
X704748D01*
X647460Y245929D02*
Y247573D01*
X653927Y254040D01*
X644531Y243000D02*
X647460Y245929D01*
X595740Y230540D02*
X621040D01*
X633500Y243000D02*
X644531D01*
X621040Y230540D02*
X633500Y243000D01*
X583200Y218000D02*
X595740Y230540D01*
X560096Y122496D02*
X589296D01*
X540600Y103000D02*
X560096Y122496D01*
X589296D02*
X608600Y141800D01*
X411000Y28000D02*
X412300Y29300D01*
Y69700D01*
X413600Y71000D01*
X489800D02*
X513800Y47000D01*
X757785D01*
X765400Y244188D02*
Y247300D01*
X366600Y324700D02*
X407000Y284300D01*
X366600Y324700D02*
Y375000D01*
X255000Y339600D02*
X290400Y375000D01*
X255000Y302000D02*
Y339600D01*
X315819Y112260D02*
X383000Y179441D01*
X264680Y151320D02*
Y155320D01*
X246648Y150200D02*
X249600Y147248D01*
X247471Y160040D02*
X257140Y150371D01*
X218200Y201800D02*
Y222000D01*
Y201800D02*
X264680Y155320D01*
X265629Y112260D02*
X315819D01*
X383000Y179441D02*
Y182000D01*
X257140Y131412D02*
Y150371D01*
Y131412D02*
X268752Y119800D01*
X222152Y150200D02*
X246648D01*
X234400Y135000D02*
X242060Y127340D01*
X249600Y128289D02*
X265629Y112260D01*
X268752Y119800D02*
X312696D01*
X264680Y151320D02*
X281000Y135000D01*
X274690Y92536D02*
X275636D01*
X242060Y125166D02*
X274690Y92536D01*
X209000Y137048D02*
X222152Y150200D01*
X249600Y128289D02*
Y147248D01*
X242060Y125166D02*
Y127340D01*
X209000Y135000D02*
Y137048D01*
X135927Y160040D02*
X247471D01*
X275636Y92536D02*
X309212Y58960D01*
X357719D01*
X312696Y119800D02*
X339557Y146660D01*
Y163957D01*
X129460Y153573D02*
X135927Y160040D01*
X357719Y58960D02*
X382799Y84040D01*
X451360D01*
X464400Y71000D01*
X339557Y163957D02*
X357600Y182000D01*
X129460Y151929D02*
Y153573D01*
X126531Y149000D02*
X129460Y151929D01*
X115500Y149000D02*
X126531D01*
X129000Y224540D02*
X175000Y270540D01*
Y384000D01*
X129000Y222000D02*
Y224540D01*
X85000Y354188D02*
Y355000D01*
X78200Y222000D02*
Y347388D01*
X85000Y354188D01*
D47*
X761000Y218000D02*
D03*
D48*
X735600D02*
D03*
X710200D02*
D03*
X684800D02*
D03*
X659400D02*
D03*
X634000D02*
D03*
X608600D02*
D03*
X583200D02*
D03*
X557800D02*
D03*
X532400D02*
D03*
X507000D02*
D03*
X481600D02*
D03*
X456200D02*
D03*
X430800D02*
D03*
X761000Y141800D02*
D03*
X735600D02*
D03*
X710200D02*
D03*
X684800D02*
D03*
X659400D02*
D03*
X634000D02*
D03*
X608600D02*
D03*
X583200D02*
D03*
X557800D02*
D03*
X532400D02*
D03*
X507000D02*
D03*
X481600D02*
D03*
X456200D02*
D03*
X430800D02*
D03*
X773500Y347500D02*
D03*
X708500D02*
D03*
Y302500D02*
D03*
D49*
X132000Y29000D02*
D03*
D50*
X102000Y76000D02*
D03*
D51*
X164000D02*
D03*
D52*
X587600Y376000D02*
D03*
X613000D02*
D03*
X663800D02*
D03*
X714600D02*
D03*
X740000D02*
D03*
X689200D02*
D03*
X638400D02*
D03*
X290400Y375000D02*
D03*
X315800D02*
D03*
X392000D02*
D03*
X442800D02*
D03*
X493600D02*
D03*
X468200D02*
D03*
X417400D02*
D03*
X366600D02*
D03*
X341200D02*
D03*
X290200Y407000D02*
D03*
X315600D02*
D03*
X391800D02*
D03*
X442600D02*
D03*
X493400D02*
D03*
X468000D02*
D03*
X417200D02*
D03*
X366400D02*
D03*
X341000D02*
D03*
X388200Y71000D02*
D03*
X413600D02*
D03*
X464400D02*
D03*
X515200D02*
D03*
X540600D02*
D03*
X489800D02*
D03*
X439000D02*
D03*
X388200Y103000D02*
D03*
X413600D02*
D03*
X464400D02*
D03*
X515200D02*
D03*
X540600D02*
D03*
X489800D02*
D03*
X439000D02*
D03*
X634000Y71000D02*
D03*
X659400D02*
D03*
X710200D02*
D03*
X735600D02*
D03*
X684800D02*
D03*
X634000Y103000D02*
D03*
X659400D02*
D03*
X710200D02*
D03*
X735600D02*
D03*
X684800D02*
D03*
X638800Y408000D02*
D03*
X689600D02*
D03*
X740400D02*
D03*
X715000D02*
D03*
X664200D02*
D03*
X613400D02*
D03*
X588000D02*
D03*
X47000Y356400D02*
D03*
Y331000D02*
D03*
Y381800D02*
D03*
Y407200D02*
D03*
X85000Y380400D02*
D03*
Y405800D02*
D03*
D53*
X765400Y376000D02*
D03*
X519000Y375000D02*
D03*
X518800Y407000D02*
D03*
X566000Y71000D02*
D03*
Y103000D02*
D03*
X761000Y71000D02*
D03*
Y103000D02*
D03*
X765800Y408000D02*
D03*
D54*
X210000Y384000D02*
D03*
D55*
X175000D02*
D03*
D56*
X765400Y272700D02*
D03*
D57*
Y247300D02*
D03*
X740000Y272700D02*
D03*
X714600D02*
D03*
X740000Y247300D02*
D03*
X714600D02*
D03*
D58*
X47000Y305600D02*
D03*
X85000Y355000D02*
D03*
D59*
X129000Y222000D02*
D03*
X269000D02*
D03*
D60*
X103600D02*
D03*
X78200D02*
D03*
X243600D02*
D03*
X218200D02*
D03*
D61*
X216700Y74000D02*
D03*
D62*
X321300D02*
D03*
D63*
X383000Y182000D02*
D03*
X306400Y135000D02*
D03*
X209000D02*
D03*
D64*
X357600Y182000D02*
D03*
X281000Y135000D02*
D03*
X234400D02*
D03*
D65*
X773500Y302500D02*
D03*
D66*
X427000Y168000D02*
D03*
X411000Y28000D02*
D03*
M02*
