G04*
G04 #@! TF.GenerationSoftware,Altium Limited,Altium Designer,21.3.2 (30)*
G04*
G04 Layer_Color=16711935*
%FSLAX44Y44*%
%MOMM*%
G71*
G04*
G04 #@! TF.SameCoordinates,7FAD31E7-CA04-41FB-AB92-AE363CD61F23*
G04*
G04*
G04 #@! TF.FilePolarity,Positive*
G04*
G01*
G75*
%ADD10C,0.2000*%
%ADD67C,0.1500*%
%ADD68C,0.1000*%
D10*
X564500Y310500D02*
X600500D01*
Y285500D02*
Y310500D01*
X564500Y285500D02*
X600500D01*
X564500D02*
Y310500D01*
X628000Y285500D02*
X664000D01*
Y260500D02*
Y285500D01*
X628000Y260500D02*
X664000D01*
X628000D02*
Y285500D01*
X628000Y255500D02*
X664000D01*
Y230500D02*
Y255500D01*
X628000Y230500D02*
X664000D01*
X628000D02*
Y255500D01*
X522000Y310500D02*
X558000D01*
Y285500D02*
Y310500D01*
X522000Y285500D02*
X558000D01*
X522000D02*
Y310500D01*
X110000Y136500D02*
Y161500D01*
Y136500D02*
X146000D01*
Y161500D01*
X110000D02*
X146000D01*
X337500Y258500D02*
Y283500D01*
X272500D02*
X337500D01*
X272500Y258500D02*
Y283500D01*
Y258500D02*
X337500D01*
Y289500D02*
Y314500D01*
X272500D02*
X337500D01*
X272500Y289500D02*
Y314500D01*
Y289500D02*
X337500D01*
X66500Y136500D02*
Y161500D01*
Y136500D02*
X102500D01*
Y161500D01*
X66500D02*
X102500D01*
X194500Y288500D02*
Y313500D01*
X129500D02*
X194500D01*
X129500Y288500D02*
Y313500D01*
Y288500D02*
X194500D01*
Y258500D02*
Y283500D01*
X129500D02*
X194500D01*
X129500Y258500D02*
Y283500D01*
Y258500D02*
X194500D01*
X300500Y28500D02*
Y53500D01*
X235500D02*
X300500D01*
X235500Y28500D02*
Y53500D01*
Y28500D02*
X300500D01*
D67*
X424150Y297000D02*
G03*
X424150Y297000I-17150J0D01*
G01*
X478150Y295000D02*
G03*
X478150Y295000I-17150J0D01*
G01*
D68*
X768400Y206900D02*
G03*
X768400Y206900I-5000J0D01*
G01*
X27498Y121000D02*
G03*
X24998Y118500I0J-2500D01*
G01*
Y33500D02*
G03*
X27498Y31000I2500J0D01*
G01*
X595499Y231749D02*
G03*
X603749Y239999I0J8250D01*
G01*
X603749Y269999D02*
G03*
X595499Y278249I-8250J0D01*
G01*
X498499D02*
G03*
X490249Y269999I0J-8250D01*
G01*
X490249Y239999D02*
G03*
X498499Y231749I8250J0D01*
G01*
X594499Y236499D02*
G03*
X598999Y240999I0J4500D01*
G01*
Y268999D02*
G03*
X594499Y273499I-4500J0D01*
G01*
X499499D02*
G03*
X494999Y268999I0J-4500D01*
G01*
Y240999D02*
G03*
X499499Y236499I4500J0D01*
G01*
X419400Y215900D02*
X772400D01*
X419400Y143900D02*
X772400D01*
Y215900D01*
X419400Y143900D02*
Y215900D01*
X27500Y121000D02*
X170000D01*
X25000Y33500D02*
Y118500D01*
X170000Y31000D02*
Y121000D01*
X27500Y31000D02*
X170000D01*
X498499Y278249D02*
X595499D01*
X498499Y231749D02*
X595499D01*
X499499Y273499D02*
X594499D01*
X499499Y236499D02*
X594499D01*
X494999Y240999D02*
Y268999D01*
X490249Y239999D02*
Y269999D01*
X598999Y240999D02*
Y268999D01*
X603749Y239999D02*
Y269999D01*
X603749Y269999D01*
X227500Y354800D02*
Y407200D01*
Y344000D02*
Y349800D01*
X231500Y349050D02*
Y355550D01*
X227500Y349800D02*
X231500Y349050D01*
X227500Y354800D02*
X231500Y355550D01*
X227500Y412200D02*
Y418000D01*
Y407200D02*
X231500Y406450D01*
X227500Y412200D02*
X231500Y412950D01*
Y406450D02*
Y412950D01*
X157500Y344000D02*
Y418000D01*
X227500D01*
X157500Y344000D02*
X227500D01*
X711050Y354950D02*
X770950D01*
X711050Y295050D02*
Y354950D01*
Y295050D02*
X770950D01*
Y354950D01*
M02*
